<svg viewBox="0 0 330 200" xmlns="http://www.w3.org/2000/svg"><g><g><g><g><g><line x1="48.875" y1="177.828125" x2="43.875" y2="177.828125" style="visibility: inherit;" fill="rgb(0, 0, 0)" stroke="rgb(204, 204, 204)" stroke-width="1px"></line><line x1="48.875" y1="161.6619318181818" x2="43.875" y2="161.6619318181818" style="visibility: inherit;" fill="rgb(0, 0, 0)" stroke="rgb(204, 204, 204)" stroke-width="1px"></line><line x1="48.875" y1="145.49573863636363" x2="43.875" y2="145.49573863636363" style="visibility: inherit;" fill="rgb(0, 0, 0)" stroke="rgb(204, 204, 204)" stroke-width="1px"></line><line x1="48.875" y1="129.3295454545454" x2="43.875" y2="129.3295454545454" style="visibility: inherit;" fill="rgb(0, 0, 0)" stroke="rgb(204, 204, 204)" stroke-width="1px"></line><line x1="48.875" y1="113.1633522727273" x2="43.875" y2="113.1633522727273" style="visibility: inherit;" fill="rgb(0, 0, 0)" stroke="rgb(204, 204, 204)" stroke-width="1px"></line><line x1="48.875" y1="96.9971590909091" x2="43.875" y2="96.9971590909091" style="visibility: inherit;" fill="rgb(0, 0, 0)" stroke="rgb(204, 204, 204)" stroke-width="1px"></line><line x1="48.875" y1="80.83096590909089" x2="43.875" y2="80.83096590909089" style="visibility: inherit;" fill="rgb(0, 0, 0)" stroke="rgb(204, 204, 204)" stroke-width="1px"></line><line x1="48.875" y1="64.6647727272727" x2="43.875" y2="64.6647727272727" style="visibility: inherit;" fill="rgb(0, 0, 0)" stroke="rgb(204, 204, 204)" stroke-width="1px"></line><line x1="48.875" y1="48.49857954545453" x2="43.875" y2="48.49857954545453" style="visibility: inherit;" fill="rgb(0, 0, 0)" stroke="rgb(204, 204, 204)" stroke-width="1px"></line><line x1="48.875" y1="32.3323863636364" x2="43.875" y2="32.3323863636364" style="visibility: inherit;" fill="rgb(0, 0, 0)" stroke="rgb(204, 204, 204)" stroke-width="1px"></line><line x1="48.875" y1="16.166193181818187" x2="43.875" y2="16.166193181818187" style="visibility: inherit;" fill="rgb(0, 0, 0)" stroke="rgb(204, 204, 204)" stroke-width="1px"></line><line x1="48.875" y1="0" x2="43.875" y2="0" style="visibility: inherit;" fill="rgb(0, 0, 0)" stroke="rgb(204, 204, 204)" stroke-width="1px"></line></g><g transform="translate(38.875, 0)"><text x="0" y="177.828125" dx="0em" dy="0.3em" style="text-anchor: end; visibility: hidden; font-family: &quot;Helvetica Neue&quot;, sans-serif; font-size: 12px; font-weight: 200;" fill="rgb(50, 49, 63)" stroke="none" stroke-width="1px">0.95</text><text x="0" y="161.6619318181818" dx="0em" dy="0.3em" style="text-anchor: end; visibility: inherit; font-family: &quot;Helvetica Neue&quot;, sans-serif; font-size: 12px; font-weight: 200;" fill="rgb(50, 49, 63)" stroke="none" stroke-width="1px">1</text><text x="0" y="145.49573863636363" dx="0em" dy="0.3em" style="text-anchor: end; visibility: hidden; font-family: &quot;Helvetica Neue&quot;, sans-serif; font-size: 12px; font-weight: 200;" fill="rgb(50, 49, 63)" stroke="none" stroke-width="1px">1.05</text><text x="0" y="129.3295454545454" dx="0em" dy="0.3em" style="text-anchor: end; visibility: inherit; font-family: &quot;Helvetica Neue&quot;, sans-serif; font-size: 12px; font-weight: 200;" fill="rgb(50, 49, 63)" stroke="none" stroke-width="1px">1.1</text><text x="0" y="113.1633522727273" dx="0em" dy="0.3em" style="text-anchor: end; visibility: hidden; font-family: &quot;Helvetica Neue&quot;, sans-serif; font-size: 12px; font-weight: 200;" fill="rgb(50, 49, 63)" stroke="none" stroke-width="1px">1.15</text><text x="0" y="96.9971590909091" dx="0em" dy="0.3em" style="text-anchor: end; visibility: inherit; font-family: &quot;Helvetica Neue&quot;, sans-serif; font-size: 12px; font-weight: 200;" fill="rgb(50, 49, 63)" stroke="none" stroke-width="1px">1.2</text><text x="0" y="80.83096590909089" dx="0em" dy="0.3em" style="text-anchor: end; visibility: hidden; font-family: &quot;Helvetica Neue&quot;, sans-serif; font-size: 12px; font-weight: 200;" fill="rgb(50, 49, 63)" stroke="none" stroke-width="1px">1.25</text><text x="0" y="64.6647727272727" dx="0em" dy="0.3em" style="text-anchor: end; visibility: inherit; font-family: &quot;Helvetica Neue&quot;, sans-serif; font-size: 12px; font-weight: 200;" fill="rgb(50, 49, 63)" stroke="none" stroke-width="1px">1.3</text><text x="0" y="48.49857954545453" dx="0em" dy="0.3em" style="text-anchor: end; visibility: hidden; font-family: &quot;Helvetica Neue&quot;, sans-serif; font-size: 12px; font-weight: 200;" fill="rgb(50, 49, 63)" stroke="none" stroke-width="1px">1.35</text><text x="0" y="32.3323863636364" dx="0em" dy="0.3em" style="text-anchor: end; visibility: inherit; font-family: &quot;Helvetica Neue&quot;, sans-serif; font-size: 12px; font-weight: 200;" fill="rgb(50, 49, 63)" stroke="none" stroke-width="1px">1.4</text><text x="0" y="16.166193181818187" dx="0em" dy="0.3em" style="text-anchor: end; visibility: hidden; font-family: &quot;Helvetica Neue&quot;, sans-serif; font-size: 12px; font-weight: 200;" fill="rgb(50, 49, 63)" stroke="none" stroke-width="1px">1.45</text><text x="0" y="0" dx="0em" dy="0.3em" style="text-anchor: end; visibility: hidden; font-family: &quot;Helvetica Neue&quot;, sans-serif; font-size: 12px; font-weight: 200;" fill="rgb(50, 49, 63)" stroke="none" stroke-width="1px">1.5</text></g><line x1="48.875" y1="0" x2="48.875" y2="177.828125" fill="rgb(0, 0, 0)" stroke="rgb(204, 204, 204)" stroke-width="1px"></line></g></g><g transform="translate(48, 0)" clip-path="url(#clip_0)"><clipPath id="clip_0"><rect width="281" height="177"></rect></clipPath><g><g><g><line x1="0" y1="0" x2="0" y2="177.828125" fill="rgb(0, 0, 0)" stroke="rgb(60, 60, 60)" stroke-width="1px" opacity="0.25"></line><line x1="31.23611111111111" y1="0" x2="31.23611111111111" y2="177.828125" fill="rgb(0, 0, 0)" stroke="rgb(60, 60, 60)" stroke-width="1px" opacity="0.25"></line><line x1="62.47222222222222" y1="0" x2="62.47222222222222" y2="177.828125" fill="rgb(0, 0, 0)" stroke="rgb(60, 60, 60)" stroke-width="1px" opacity="0.25"></line><line x1="93.70833333333333" y1="0" x2="93.70833333333333" y2="177.828125" fill="rgb(0, 0, 0)" stroke="rgb(60, 60, 60)" stroke-width="1px" opacity="0.25"></line><line x1="124.94444444444444" y1="0" x2="124.94444444444444" y2="177.828125" fill="rgb(0, 0, 0)" stroke="rgb(60, 60, 60)" stroke-width="1px" opacity="0.25"></line><line x1="156.18055555555557" y1="0" x2="156.18055555555557" y2="177.828125" fill="rgb(0, 0, 0)" stroke="rgb(60, 60, 60)" stroke-width="1px" opacity="0.25"></line><line x1="187.41666666666666" y1="0" x2="187.41666666666666" y2="177.828125" fill="rgb(0, 0, 0)" stroke="rgb(60, 60, 60)" stroke-width="1px" opacity="0.25"></line><line x1="218.65277777777777" y1="0" x2="218.65277777777777" y2="177.828125" fill="rgb(0, 0, 0)" stroke="rgb(60, 60, 60)" stroke-width="1px" opacity="0.25"></line><line x1="249.88888888888889" y1="0" x2="249.88888888888889" y2="177.828125" fill="rgb(0, 0, 0)" stroke="rgb(60, 60, 60)" stroke-width="1px" opacity="0.25"></line><line x1="281.125" y1="0" x2="281.125" y2="177.828125" fill="rgb(0, 0, 0)" stroke="rgb(60, 60, 60)" stroke-width="1px" opacity="0.25"></line></g><g><line x1="0" y1="177.828125" x2="281.125" y2="177.828125" fill="rgb(0, 0, 0)" stroke="rgb(60, 60, 60)" stroke-width="1px" opacity="0.25"></line><line x1="0" y1="161.6619318181818" x2="281.125" y2="161.6619318181818" fill="rgb(0, 0, 0)" stroke="rgb(60, 60, 60)" stroke-width="1px" opacity="0.25"></line><line x1="0" y1="145.49573863636363" x2="281.125" y2="145.49573863636363" fill="rgb(0, 0, 0)" stroke="rgb(60, 60, 60)" stroke-width="1px" opacity="0.25"></line><line x1="0" y1="129.3295454545454" x2="281.125" y2="129.3295454545454" fill="rgb(0, 0, 0)" stroke="rgb(60, 60, 60)" stroke-width="1px" opacity="0.25"></line><line x1="0" y1="113.1633522727273" x2="281.125" y2="113.1633522727273" fill="rgb(0, 0, 0)" stroke="rgb(60, 60, 60)" stroke-width="1px" opacity="0.25"></line><line x1="0" y1="96.9971590909091" x2="281.125" y2="96.9971590909091" fill="rgb(0, 0, 0)" stroke="rgb(60, 60, 60)" stroke-width="1px" opacity="0.25"></line><line x1="0" y1="80.83096590909089" x2="281.125" y2="80.83096590909089" fill="rgb(0, 0, 0)" stroke="rgb(60, 60, 60)" stroke-width="1px" opacity="0.25"></line><line x1="0" y1="64.6647727272727" x2="281.125" y2="64.6647727272727" fill="rgb(0, 0, 0)" stroke="rgb(60, 60, 60)" stroke-width="1px" opacity="0.25"></line><line x1="0" y1="48.49857954545453" x2="281.125" y2="48.49857954545453" fill="rgb(0, 0, 0)" stroke="rgb(60, 60, 60)" stroke-width="1px" opacity="0.25"></line><line x1="0" y1="32.3323863636364" x2="281.125" y2="32.3323863636364" fill="rgb(0, 0, 0)" stroke="rgb(60, 60, 60)" stroke-width="1px" opacity="0.25"></line><line x1="0" y1="16.166193181818187" x2="281.125" y2="16.166193181818187" fill="rgb(0, 0, 0)" stroke="rgb(60, 60, 60)" stroke-width="1px" opacity="0.25"></line><line x1="0" y1="0" x2="281.125" y2="0" fill="rgb(0, 0, 0)" stroke="rgb(60, 60, 60)" stroke-width="1px" opacity="0.25"></line></g></g></g><g><g><line x1="0" y1="484.98579545454544" x2="281.125" y2="484.98579545454544" fill="rgb(0, 0, 0)" stroke="rgb(153, 153, 153)" stroke-width="1.5px"></line></g></g><g><g><line x1="31.23611111111111" y1="0" x2="31.23611111111111" y2="177.828125" fill="rgb(0, 0, 0)" stroke="rgb(153, 153, 153)" stroke-width="1.5px"></line></g></g><g><g><g><g><g><path stroke="rgb(255, 112, 67)" stroke-width="2px" d="M34.515902777777775,-3.2269119773930015L34.82826388888889,2.839976214807564L34.93759027777778,13.605783138838774L35.42175,22.775241744342225L35.62478472222222,30.41168031740122L35.74972916666667,19.41591243930128L35.81220138888889,13.944624504858893L36.18703472222222,12.57138197799415L36.280743055555554,13.484478571365855L36.39006944444444,11.050123900552848L36.46815972222222,3.8412970980329533L36.81175694444445,7.129035227440113L36.874229166666666,4.711633768037473L37.2490625,6.376695365406363L37.35838888888889,2.4434610229119187L37.374006944444446,4.9479017859436L37.49895138888889,12.81614630313868L37.54580555555556,11.021288693820821L37.76445833333333,16.85172381284025L38.60783333333333,18.54027886012335L38.81086805555555,22.77632203524513L38.82648611111111,19.629613616660748L38.87334027777778,24.726607002451203L39.076375000000006,24.724102752671826L39.15446527777778,19.580536995939582L39.52929861111111,16.00408792268243L39.56053472222222,23.12509461841171L39.76356944444445,27.899889900725015L39.85727777777778,23.01534872019488L40.294583333333335,21.81822040804647L40.45076388888889,27.88240128762743L41.07548611111111,25.733426193822737L41.512791666666665,30.346781125213738L41.52840972222222,34.54917654834517L41.63773611111111,41.388406474227L41.66897222222222,48.60716622063322L42.04380555555556,53.63386713133433L42.106277777777784,49.69524223984439L42.278076388888884,51.178380497558976L42.37178472222222,52.382042146502556L42.449875,58.23634184771227L42.68414583333333,53.8405686853515L42.762236111111115,55.34278202078055L42.871562499999996,52.4710276483964L43.121451388888886,49.32397690058414L43.35572222222223,52.026927935860016L43.48066666666667,55.6831087313617L43.60561111111111,62.09432064701991L43.63684722222222,63.74630726604333L43.76179166666667,69.11174355465522L44.04291666666667,67.70622001648253L44.433368055555555,69.06152429278117L44.573930555555556,68.1727983908561L44.65202083333333,70.16839615117367L44.76134722222222,65.04318156797034L44.77696527777778,64.78921552860103L44.79258333333333,62.90482423445319L45.136180555555555,65.14581877651489L45.49539583333333,62.7148701294621L45.635958333333335,71.16954409161583L45.69843055555556,70.60582491922024L45.80775694444444,68.45868776973343L45.823375,60.87526710556308L45.88584722222222,58.641083293182476L46.19820833333333,57.921431914690956L46.338770833333335,56.25434860775819L46.43247916666667,60.00856068941427L46.854166666666664,57.36048158256139L47.13529166666667,64.00764616534914L47.447652777777776,63.70823911905329L47.603833333333334,64.91279289864734L48.306645833333334,62.07916059086021L48.400354166666666,60.394591618135436L48.4940625,60.8812345052619L48.650243055555556,58.82554326775842L48.69709722222222,55.835642605524015L48.69709722222222,54.003738524098196L48.85327777777778,54.33712141395789L48.900131944444446,48.742701204871764L49.24372916666667,45.66531413772017L49.3374375,43.199965832630625L49.618562499999996,46.66441545738718L49.88406944444444,44.67214437179223L49.8996875,35.78064738072743L49.915305555555555,35.53027553408606L50.25890277777778,37.46509475726597L50.38384722222222,41.5202198842656L50.39946527777778,43.71670220599421L50.44631944444444,33.0400122226948L50.63373611111111,33.333736087982004L50.64935416666667,33.541388438948644L50.727444444444444,26.592292672661756L50.7430625,30.223080995674337L50.774298611111114,31.486905465707167L51.00856944444444,33.80657065090736L51.117895833333336,38.93472257467582L51.16475,46.522209104246485L52.19554166666667,45.04034742266694L52.632847222222225,52.067271431953856L52.74217361111111,59.6823561759967L53.00768055555556,55.1091256428448L53.851055555555554,58.50988775716064L54.3976875,49.09579515332277L54.74128472222222,45.83320642742771L54.9599375,42.27801554094751L54.97555555555556,44.655379794080716L55.42847916666666,42.31614742080481L55.91263888888889,46.12241758583883L56.19376388888889,44.913561064554074L56.459270833333335,42.30150782012629L56.56859722222222,39.741999260800014L56.58421527777778,38.661983644025895L56.58421527777778,38.98898624277177L57.03713888888889,41.96023018603998L57.59938888888889,41.88785239548733L57.84927777777778,40.81409705495952L58.161638888888895,39.592060116671774L58.41152777777778,45.97084660791421L59.34861111111111,41.50130120059728L59.48917361111111,44.688482337181796L59.50479166666667,51.31882256543393L59.895243055555554,64.92105486531833L60.332548611111115,66.73230992473347L60.441874999999996,56.372346122408544L60.847944444444444,50.98821443933198L61.01974305555556,53.299880779167125L61.05097916666667,63.345406747779094L61.06659722222223,63.25344735923346L61.41019444444444,67.55342579146821L61.90997222222222,66.88482644078478L62.128625,71.02800387479417L62.34727777777778,75.74433287389215L62.75334722222222,78.76294208028808L63.23750694444445,78.3736312795945L63.315597222222216,79.80443758587187L63.89346527777778,75.2069497726887L64.00279166666667,77.11485264401024L64.04964583333333,75.42789029079039L64.23706250000001,73.91920605497246L64.28391666666667,68.92241386134033L64.5181875,62.96871832880355L64.84616666666666,59.389265714413696L64.939875,54.85317668581685L64.95549305555555,55.82597401923134L65.59583333333333,50.74954885258522L65.84572222222222,49.24112026913477L66.31426388888889,47.530447921806626L66.43920833333334,42.31455293702527L66.61100694444445,39.427873915911135L67.37629166666666,40.89871911807168L67.65741666666666,39.03982053535688L67.68865277777778,40.1374441609662L67.751125,38.55444253949406L68.32899305555556,47.53809955355655L68.62573611111111,57.47913841339111L68.71944444444445,68.39270974246034L68.7350625,81.28415429956912L69.03180555555555,88.18992584223281L69.12551388888889,91.24608029103578L69.45349305555555,87.1812781050235L69.98450694444445,87.22804540229022L70.04697916666667,89.38527162026566L70.07821527777777,88.0601766297035L70.67170138888889,91.81638492431674L70.68731944444446,87.78989277495032L71.10900694444445,91.43694087722803L71.32765972222222,92.19082271991563L71.84305555555555,78.7410991033907L72.13979861111112,75.59752429838612L72.84261111111111,79.28725854220131L72.96755555555555,78.97776562280303L73.07688194444444,78.06435754152142L73.56104166666667,75.77041765158945L73.73284027777778,69.09384542096359L74.29509027777777,67.35998889488009L74.31070833333332,71.08712584923201L74.56059722222223,78.8360144413566L74.85734027777778,79.30786746023729L75.43520833333332,82.23174231645244L75.46644444444443,83.87291205925808L75.57577083333332,87.15737534048732L75.90375,79.8260520170614L75.91936805555555,79.95711973337427L76.59094444444445,83.43950960585107L76.7158888888889,82.31393836194442L76.74712500000001,85.4547489064593L77.01263194444444,87.26543317852857L77.02825,89.05301836155978L77.07510416666666,96.94686049332354L77.35622916666667,91.87440700111209L77.52802777777778,89.77765236932373L77.71544444444444,90.72916484746834L77.79353472222222,89.1777973915849L78.01218750000001,89.4580266432829L78.16836805555556,95.76756021504747L78.19960416666667,100.38541977968777L79.0273611111111,91.16150391948082L79.1054513888889,92.02286806731476L79.49590277777779,85.90215699712179L79.65208333333334,80.50388936485434L79.74579166666668,80.67640865229131L79.79264583333332,76.61143369361623L79.90197222222221,79.0528814287019L80.33927777777778,82.47463658757552L80.52669444444444,78.7034809023617L80.55793055555556,80.49265432227396L80.74534722222222,85.19016740705631L80.91714583333334,89.2813860143331L81.02647222222222,86.92913497764475L81.21388888888887,83.01445767406453L81.96355555555556,81.4849456450529L82.15097222222222,76.58160033882346L82.57265972222223,87.7981071165041L82.65075,92.2455275733089L82.79131249999999,98.76902429655145L83.213,98.02767158894174L83.52536111111111,100.08078752653837L83.54097916666667,100.70814431243723L83.6346875,97.23950391392754L83.85334027777778,96.71995297718485L83.88457638888889,95.48116535525665L84.69671527777777,90.40494359625932L84.7591875,84.84142432870135L84.86851388888888,82.1446293838979L85.63379861111112,78.95225010012808L85.83683333333333,80.52267426347451L86.00863194444445,89.84628631324053L86.7270625,77.54400479455954L86.78953472222223,68.81406800991115L87.10189583333334,75.24571268435025L87.58605555555555,70.70394632861927L87.82032638888889,67.92814771519521L88.32010416666667,75.8432399935515L88.46066666666667,80.03216630684632L88.53875694444446,87.97980966312028L88.55437500000001,90.67476582005285L88.6949375,92.80627273055435L88.88235416666666,90.23805306541436L89.02291666666666,90.03015094770231L89.41336805555555,93.0520039365499L89.49145833333334,96.72096386125119L89.50707638888889,94.10804061748863L89.63202083333334,95.81400353108906L89.88190972222223,96.61465566660665L90.64719444444444,94.55394927631086L90.92831944444444,86.11409079513089L91.25629861111112,87.15366975932837L91.30315277777778,81.46398316079113L91.83416666666666,85.94717273715952L91.99034722222223,90.86151071487306L92.05281944444444,89.68871965455595L92.13090972222223,90.31728379950523L92.39641666666667,86.7310285063184L92.92743055555556,91.62915110174576L93.17731944444444,86.72174919803142L93.63024305555555,80.04504095552767L93.91136805555556,76.49164528447433L93.98945833333333,85.35992204739243L94.08316666666667,97.68426950183911L94.22372916666667,106.65000202481858L95.11395833333333,114.655921526844L95.37946527777778,110.58198008373611L95.42631944444445,111.2262285147508L95.97295138888889,100.66074773605409L96.3165486111111,100.80775202685591L96.36340277777778,102.0966913111758L96.5352013888889,104.16196245200508L96.58205555555556,100.31424191279882L96.64452777777778,101.94523318499647L97.34734027777779,102.23839001686208L97.3785763888889,96.9095846930459L97.59722916666666,86.21096415468786L97.67531944444444,82.91508987109968L98.12824305555556,75.59433397698534L98.39375,75.5860816271029L98.65925694444445,67.35821690795167L98.65925694444445,61.133239188392324L99.09656249999999,57.05828053744732L99.1277986111111,47.93296458639554L100.09611805555556,52.63467566269088L100.12735416666668,57.856922543175244L100.56465972222222,61.75324946939142L100.61151388888888,66.90894548286735L100.76769444444444,75.93552408794432L100.7833125,85.69266316868688L100.95511111111111,93.23460043867026L101.00196527777777,99.47052472591044L101.18938194444445,102.46426957075388L101.31432638888889,107.1917633227088L101.45488888888889,106.92145798458857L101.50174305555556,106.4696490072902L101.57983333333334,108.57535973400417L101.9390486111111,106.63186181152349L102.00152083333333,104.13261660022569L103.28220138888888,97.87247811440447L103.32905555555556,96.41451007251479L103.54770833333333,96.73709119066866L103.90692361111111,91.66587280015347L103.98501388888889,94.56530233269291L104.23490277777778,93.1525006576009L104.39108333333334,94.21490144610316L104.73468055555554,95.16616716832932L104.7502986111111,91.74145866119957L104.90647916666666,91.16197796953675L104.96895138888888,84.91982771508196L105.17198611111111,76.40757121612417L105.71861805555555,79.88461402783419L105.78109027777778,87.51734484463329L105.8435625,92.29607250936196L105.93727083333334,84.02676157907005L106.10906944444446,85.0490406754144L106.4058125,84.06542354350319L106.64008333333334,83.92732435907175L106.8275,85.85579624919549L106.9680625,86.61404998848347L107.51469444444444,83.47010522613033L108.07694444444444,76.36364639874498L108.0925625,74.41594321701048L108.40492361111112,69.76305406647994L108.59234027777778,70.66846469717038L109.10773611111112,68.0256770285245L109.71684027777778,63.19713827064126L109.74807638888889,64.75602233538199L109.7793125,62.30398413640876L109.98234722222223,58.00731388936971L110.32594444444445,52.840452537535995L110.4508888888889,46.62438626058483L110.63830555555555,44.82507588617645L110.76325,42.66650790275145L111.3255,41.66517603178815L111.48168055555556,42.45025041001492L111.52853472222222,44.272550720603874L112.41876388888889,39.9044363470197L112.43438194444444,27.412972116209062L112.60618055555555,24.406019697225076L113.05910416666667,20.179340882409434L113.13719444444445,26.870256222559362L113.16843055555556,31.2512185743592L113.4027013888889,36.61776673075201L113.65259027777778,40.31068939366915L113.65259027777778,44.217979590233426L114.05865972222222,45.656661002324284L114.19922222222222,49.498139660603584L114.3085486111111,49.332574629432656L114.43349305555556,52.324548485748835L114.5584375,50.0657406836695L114.87079861111111,48.22655109720674L115.23001388888889,49.88586531726858L115.24563194444444,46.49462495795581L115.41743055555555,46.560665731120025L115.46428472222222,42.2781483677463L115.6829375,42.54438679791417L115.76102777777778,43.921342077699194L115.80788194444445,46.14289861332145L115.88597222222222,50.38892142516791L115.9640625,51.92049767250356L116.0733888888889,50.34640634392058L116.37013194444445,52.76653092233529L116.38574999999999,58.49761763275488L116.65125694444444,63.98081555326068L116.68249305555555,68.89128812236042L116.86990972222222,70.45455764924147L116.91676388888888,69.41872805341364L116.93238194444444,73.27731353199792L117.24474305555556,75.6993526104928L117.29159722222222,72.93757463630419L117.38530555555556,75.9783381770959L117.43215972222222,68.83648592824305L117.93193749999999,70.04149185693275L118.07249999999999,72.96998906230614L118.15059027777777,76.26496822750238L118.4941875,84.91317528027486L118.68160416666667,89.62848757580198L118.69722222222222,91.3410744981018L118.69722222222222,93.30043080003304L119.16576388888889,85.40923651218168L119.25947222222223,83.70412425819363L120.39959027777778,77.42746754459891L120.82127777777777,80.03044630514974L120.97745833333333,80.3418808522832L121.21172916666666,78.70187994043768L121.28981944444445,70.17955628298209L121.41476388888888,70.10155194582235L121.47723611111111,72.77448743295825L121.55532638888889,70.85157678560815L121.78959722222223,72.29734923262518L122.10195833333334,73.5976348152299L122.19566666666667,72.2590296306604L122.36746527777777,68.40036539202923L122.47679166666666,73.88007945848533L122.49240972222222,71.98185772573137L123.05465972222223,72.23397386246953L123.61690972222223,71.7483300977791L123.94488888888888,76.67244521753864L124.538375,77.09654167890194L124.69455555555555,82.85083179170111L124.74140972222223,86.39512169044377L124.85073611111112,86.73847417898571L124.9600625,86.09077190773884L125.02253472222223,88.86664147980312L125.16309722222223,89.74805193303412L125.25680555555554,86.96197934244894L126.02209027777778,81.50682966938862L126.225125,75.8684623828073L126.25636111111112,69.03646174882702L126.38130555555556,66.73099331751196L126.63119444444443,65.27098621669845L126.70928472222224,66.32305101191004L127.2090625,66.17256877631083L127.22468055555555,63.333186107666506L127.349625,64.84643212847035L128.03681944444443,62.171515231766506L128.09929166666666,60.88770933529085L128.34918055555556,68.22534930642396L128.52097916666668,66.31030907282405L129.25502777777777,69.39713096662615L129.81727777777778,63.51573342307334L130.17649305555557,60.604095149958525L130.39514583333332,59.61336629728038L130.8636875,65.79186057789902L130.98863194444445,64.08263969544517L131.2229027777778,68.62320608932605L131.4571736111111,67.00310481367643L131.69144444444444,66.6538632188137L131.7851527777778,70.52500285489596L131.94133333333332,70.49594615788536L132.26931249999998,71.62115013366731L132.42549305555556,67.2886192179596L132.87841666666668,60.598076953635726L133.01897916666667,57.500758046028906L133.2220138888889,61.981899739555075L133.30010416666667,68.56291853748401L133.3938125,75.68883450321638L133.48752083333332,80.28673908297182L133.5968472222222,84.67389628943282L133.62808333333334,92.37488138788497L133.76864583333332,95.15637963915343L134.04977083333333,96.07456540095475L134.36213194444446,97.81675004509721L134.36213194444446,100.02679211092857L134.39336805555556,101.90352662479731L134.61202083333333,98.5363932934683L135.18988888888887,94.21666829614558L135.47101388888888,90.79415930031314L135.8927013888889,87.76356412767363L135.9239375,98.60478715303724L136.08011805555557,104.48785221704163L136.45495138888887,108.88939890766268L136.6892222222222,108.38405323384461L137.01720138888888,108.10324158595974L137.40765277777777,99.64575672997405L137.53259722222222,92.20719499348543L137.59506944444445,86.5823640918583L137.6419236111111,74.41610989072933L138.04799305555557,69.59969992983547L138.07922916666666,64.83043723467824L138.39159027777777,57.97264560770083L138.57900694444444,61.45960733984427L138.81327777777778,64.24055423395717L139.07878472222222,65.93603415038834L139.34429166666666,61.60901033827919L139.53170833333334,62.09337464390161L139.65665277777777,61.47153042508607L140.06272222222222,71.55799805260885L140.21890277777777,75.48222198243224L140.2501388888889,83.08129940612052L140.32822916666666,83.22389502939495L140.37508333333335,87.98516324463434L140.54688194444446,92.40964989851743L141.18722222222223,89.7285038101259L142.2804861111111,93.71873642945896L142.32734027777778,103.63196851175536L142.79588194444443,103.4310816113054L142.8115,103.38535421929218L142.85835416666666,97.04462826028957L142.92082638888888,95.46570966022703L143.06138888888887,89.64492175747246L143.15509722222222,91.42788710022148L143.2019513888889,88.26049048188003L143.654875,89.94203685967169L144.0453263888889,91.3916049014263L144.42015972222222,94.65574127477451L144.70128472222223,90.82546938817262L144.8887013888889,100.26567820768423L144.90431944444447,101.54200636839558L145.49780555555554,99.52340588051017L145.5446597222222,105.05093883962029L145.77893055555555,105.37667914187084L145.84140277777777,108.13473367671277L145.87263888888887,110.81867551162664L145.91949305555556,116.23068393440657L146.38803472222222,115.34152126750168L146.63792361111112,117.74811988562267L146.65354166666665,116.1839625936794L146.71601388888888,114.77138385831651L146.74725,118.83448924646L146.87219444444446,119.08745630392492L147.37197222222224,116.40361126057098L147.5281527777778,109.58184877644321L147.77804166666664,106.39446029192789L147.79365972222223,102.38079986482244L147.98107638888888,104.14824312581516L148.57456249999998,102.77875815679502L149.07434027777776,95.54948051004133L149.40231944444446,91.97358230116453L149.43355555555556,97.3385264437204L149.7771527777778,97.21870276083071L149.91771527777777,101.67508262348018L150.44872916666668,103.58910481493871L150.90165277777777,107.2622500839341L151.02659722222222,101.51187615211114L151.07345138888888,104.50797723729642L151.71379166666665,97.20359263595529L151.93244444444443,94.64356701865175L152.05738888888888,93.98224392843916L152.07300694444444,86.81961425355027L152.32289583333332,86.24111565025322L152.57278472222222,93.56985290168772L153.02570833333334,92.7510669861405L154.15020833333332,92.80404104259223L154.337625,91.17104881375984L154.4000972222222,97.0041605684455L154.4469513888889,96.27960586827935L154.80616666666666,97.91960569912845L154.83740277777778,102.78282507039566L154.97796527777777,107.12225465196263L155.13414583333332,110.14989273113022L156.00875694444446,108.56600635395709L156.11808333333335,107.36966725813437L156.61786111111113,107.57758407123902L156.91460416666666,108.56029112395224L157.08640277777778,110.34773702187077L157.5393263888889,109.23768522716931L157.64865277777778,103.52084973073904L157.72674305555554,94.7037017675578L157.75797916666667,87.95974708339627L158.11719444444444,88.7796128673187L158.67944444444444,93.95908803359596L158.85124305555556,99.49651394115952L158.99180555555557,96.10971479897964L159.35102083333334,87.25890017745543L159.6165277777778,87.14068366689364L160.11630555555556,86.58975842565165L160.53799305555555,88.39349829757907L160.7410277777778,83.37438166248661L160.78788194444445,77.78966858266683L161.3345138888889,79.23395266213294L161.36575,81.01607637041892L161.6156388888889,80.04971075120972L162.0060902777778,80.66056892610204L162.49024999999997,80.99866583905657L162.49024999999997,81.79185052927171L162.69328472222222,75.87039555869931L162.75575694444444,70.75682012944338L162.86508333333333,74.1143605681697L163.1930625,73.19239820374818L163.3960972222222,69.18593940911356L164.50497916666666,69.3288080771302L164.73925,76.88854352188288L165.00475694444447,77.54861055808227L165.19217361111112,77.8139165973527L165.48891666666665,78.2471039742461L165.56700694444447,79.24018538284741L165.84813194444445,86.6661228002523L165.91060416666664,94.13838813047971L166.01993055555553,98.13292970935457L166.1136388888889,99.10260026019772L166.25420138888887,95.5990423872239L166.26981944444444,99.25864911219615L166.44161805555555,99.9721434380947L166.45723611111111,100.79184918238137L166.45723611111111,102.17824341828248L166.4884722222222,99.61472633180627L166.62903472222223,93.25615716021738L166.91015972222223,90.84413688964976L167.03510416666666,93.75352931290377L167.14443055555554,88.41846816848455L167.31622916666666,79.35271614726413L167.45679166666667,75.08737463297872L167.53488194444446,75.88499143906618L167.9097152777778,73.15688333760883L168.2220763888889,72.95400102025785L168.33140277777775,63.047067311637804L168.37825694444442,64.71118041374996L168.48758333333336,58.67023540910198L168.5656736111111,62.47381840481316L168.61252777777776,67.37221115807795L168.62814583333332,67.48424145615732L168.65938194444442,71.17712612726716L168.8467986111111,70.64853681710312L168.9248888888889,69.84650734700115L169.08106944444444,65.86588726972515L169.19039583333333,68.325481982571L169.47152083333333,75.15127844359091L169.62770138888888,77.85833356938718L170.00253472222224,88.92892837743723L170.01815277777777,88.11693902206285L170.26804166666668,90.5560461012969L170.56478472222224,92.96722319339852L171.42377777777776,89.90007771437806L171.50186805555555,84.91900297571846L171.6268125,81.49096331604439L171.64243055555553,84.2720578524383L171.72052083333332,74.99946075847495L171.9391736111111,66.81703780581589L172.20468055555554,64.80216878535289L172.20468055555554,63.73748848386897L172.2983888888889,67.47078633446418L172.61075,69.7516524947731L172.79816666666667,71.89554047430806L172.93872916666666,77.91348732693449L173.2823263888889,78.24058701560007L173.46974305555557,82.87724684892689L173.64154166666668,86.91152369304504L173.86019444444446,87.12419542451937L174.28188194444442,91.0922061202873L174.62547916666665,93.94665854040153L175.3126736111111,94.7014060796638L175.32829166666667,91.30256462804078L175.99986805555557,90.98351679132281L176.0623402777778,85.70288143536843L176.42155555555556,84.74624902562286L176.89009722222224,83.33245462337612L177.3586388888889,82.88536537594766L177.4211111111111,86.88122375924117L177.6397638888889,92.36542357664702L177.93650694444443,94.50927602894633L178.06145138888888,97.39568244323638L178.38943055555555,96.16983863640415L178.76426388888888,93.21959638775574L179.076625,94.03183328373301L179.27965972222222,90.85007105284964L179.42022222222224,92.69494646989841L179.4670763888889,91.26137852904927L179.638875,97.72233371953938L179.81067361111113,94.90238931962999L179.98247222222224,95.71441843556875L180.34168749999998,96.79053782380926L180.5134861111111,100.48564191889793L180.7946111111111,97.85188134167865L180.91955555555555,105.97791471781818L181.37247916666666,107.57440800075699L181.7160763888889,107.39583672704046L181.7473125,110.97214869776033L181.95034722222223,115.2421301606476L182.15338194444445,112.03067729515088L183.38720833333332,110.90376002902177L183.51215277777777,109.69503389857707L183.52777083333334,111.9259394584901L183.69956944444445,105.12468113005328L183.7464236111111,104.85086164569464L183.93384027777776,96.96308664393833L184.12125694444444,95.76752106455497L184.2462013888889,95.3261645073372L184.5585625,92.72144688657566L184.60541666666666,86.44232106079413L184.71474305555554,87.90498533518532L184.79283333333333,94.15631293469039L184.87092361111112,93.59623422820219L185.2301388888889,98.63772548186832L185.27699305555555,103.78215397197707L185.30822916666668,103.30464035499016L185.35508333333334,103.17594680664794L185.82362500000002,103.64131950208258L186.0266597222222,100.00346686038574L186.21407638888888,99.18265925979767L186.76070833333333,100.29135463434002L186.93250694444444,104.95980820393535L187.18239583333335,111.23284982983692L187.24486805555554,114.81932967931468L187.32295833333333,113.53905927755734L187.3698125,114.51255863658506L187.68217361111112,114.03998870532986L187.7915,103.90700608169L187.8227361111111,100.9294286043193L187.86959027777777,97.3940807022415L187.9008263888889,97.94963674198804L188.4943125,105.42779635106707L188.4943125,112.81371178965031L188.50993055555557,116.72995839076376L188.83790972222224,122.79396490715726L188.8691458333333,128.91274096329698L189.10341666666665,131.3434867054413L189.32206944444442,131.82097260498531L189.3376875,132.23142289325227L189.38454166666665,134.85676212155084L189.8218472222222,134.7777549828799L189.93117361111112,136.5712263550636L190.00926388888888,133.95284767878908L190.02488194444445,137.03023241176783L190.321625,139.400574890072L190.39971527777777,130.0610655519293L190.50904166666666,131.245203781823L190.8526388888889,131.9904568308345L191.0244375,128.41363054095018L191.19623611111112,122.8562862878724L191.52421527777778,119.38513089489545L191.6179236111111,111.15867563227718L191.63354166666667,105.94374624568411L191.7741041666667,108.23697160275965L191.7897222222222,104.58064993289176L191.80534027777776,103.76432261337291L191.83657638888891,95.33388296744822L191.9302847222222,84.87163419056824L192.78927777777778,80.71637276206596L192.78927777777778,78.08271577297505L192.92984027777777,84.21284380485585L192.9610763888889,80.66098499479321L193.2422013888889,75.50909220631014L193.49209027777778,82.29883878597292L193.49209027777778,88.90991696581686L193.5233263888889,87.05005822772588L193.5233263888889,86.07448808149283L193.8356875,86.72946552776766L193.89815972222223,89.0840314433885L194.0855763888889,92.60434055394775L194.35108333333335,93.04070699938481L194.5385,93.24766624597939L194.5385,94.2143524450962L194.81962499999997,87.44896821251196L195.11636805555554,91.23421780686014L195.42872916666667,89.47962144792739L195.49120138888887,87.38632989207771L195.50681944444443,84.49147550192353L195.74109027777777,80.32007673493482L195.81918055555556,83.2593315719686L195.85041666666666,82.72331223910781L196.35019444444444,80.86425478522045L196.84997222222222,89.15680605019739L197.0373888888889,94.46058598198813L197.16233333333335,98.76451622891553L197.6933472222222,105.68219409806166L197.70896527777776,111.88216267409568L197.75581944444443,116.78526555249016L198.27121527777777,121.03512443953333L198.41177777777776,121.28593971320657L199.0052638888889,125.69006748809085L199.30200694444446,124.22964113723174L199.317625,121.4677094272432L199.91111111111113,125.14020425041883L199.9892013888889,128.5019153911125L200.53583333333336,125.21665262071195L200.64515972222225,118.05031944467285L200.8638125,107.44482922203726L200.87943055555556,96.29222768676927L201.19179166666666,87.96961581764633L201.37920833333334,83.04252337391112L201.4260625,78.52729579560393L201.58224305555555,73.07415072141193L201.6290972222222,67.42765498909007L201.80089583333333,64.82465358846225L201.84775,68.89973950758676L202.31629166666667,69.08265237263063L202.7692152777778,74.10705601093179L203.01910416666666,80.43157720627057L203.0815763888889,81.23025069054827L203.73753472222222,78.25701448748232L204.75270833333335,81.91050179964596L204.940125,79.951109793237L205.04945138888888,83.73681515828825L205.25248611111112,84.73409757083377L205.31495833333332,90.94467109432786L205.3930486111111,86.85365199845003L205.43990277777777,86.42811941583913L205.48675694444444,85.07235191710663L205.502375,78.67924637741112L205.6117013888889,77.93835019986103L205.83035416666667,78.92145889397888L206.36136805555557,80.5655810437642L206.39260416666664,82.84563298568776L206.7205833333333,87.925850002063L206.98609027777778,91.94763288815074L207.28283333333331,99.03260143635228L207.98564583333334,92.22549792609145L208.0012638888889,85.07078739259474L208.1105902777778,89.3201730781323L208.9539652777778,83.39338512151451L209.00081944444446,85.19739330171382L209.09452777777778,87.2257891437795L209.48497916666665,89.84323102890285L209.5005972222222,94.9944598988353L209.5786875,99.57127101046585L209.59430555555554,99.63671931357557L209.62554166666666,104.23672960173958L210.29711805555556,103.20099499877797L210.3127361111111,106.05631303255255L210.32835416666666,106.66715612962258L211.46847222222223,108.81315104500692L211.49970833333333,109.21082742433546L211.49970833333333,110.2340420433435L211.64027083333335,109.64660456709494L211.74959722222223,110.10676382198126L211.8276875,112.1323832638747L211.92139583333335,112.72055106361795L211.95263194444445,115.2707533175303L211.9994861111111,116.90741692738175L212.03072222222224,117.27129867489026L212.0775763888889,115.11623192392724L212.26499305555558,113.6388704363804L212.3430833333333,117.91728187306882L212.54611805555555,112.20352081710298L212.5617361111111,107.5165816849981L212.6242083333333,106.31493606368241L212.88971527777778,105.03336950271908L213.07713194444443,106.0258295817203L213.34263888888887,105.48420335430961L213.46758333333332,106.9186891118529L213.655,116.50227824021414L213.81118055555555,120.51257983394055L213.92050694444444,124.74902442299384L214.17039583333334,124.95988659891242L215.06062500000002,125.45801593051199L215.43545833333332,119.70054050233766L215.91961805555556,121.67092114266875L216.0757986111111,117.16777979441531L216.15388888888887,114.47496124101377L216.31006944444445,105.88350141827597L216.7786111111111,109.60336140418133L216.8879375,104.77549634564856L217.1690625,103.35152273821154L217.32524305555557,103.60457515574632L217.4189513888889,105.05549103991163L218.0905277777778,109.21776404935035L218.16861805555558,114.90207831435887L218.84019444444445,116.72703027178619L219.26188194444444,120.96784657154367L219.558625,123.32201295892172L219.57424305555554,113.85569189973651L219.79289583333335,115.04457068872811L220.10525694444445,113.12068707672516L220.48009027777778,114.31203506984929L220.85492361111113,119.0419216239329L220.87054166666667,122.45834247291876L220.9330138888889,129.41963718660475L221.1672847222222,124.85599946977536L221.33908333333332,117.21215492414098L221.4484097222222,119.47954156942797L221.90133333333333,114.84960903166966L222.651,114.3506881050074L222.99459722222224,109.72009891788939L223.02583333333334,106.78397018711289L223.49437500000002,99.06946107461155L223.85359027777778,90.00755938699716L224.0878611111111,91.6729155261432L224.2596597222222,90.5795588438776L224.32213194444444,90.01656456328853L224.82190972222222,85.49176724877815L225.27483333333333,86.28955359660398L225.50910416666667,85.3724273760326L225.63404861111113,86.41169178684692L225.6809027777778,90.60691793787333L225.94640972222223,88.34726000466651L226.1650625,90.57990014975101L226.2743888888889,91.36477397694355L226.5242777777778,91.69247340204154L226.82102083333334,95.12043765949409L227.4925972222222,101.67081719625205L228.07046527777777,92.03681887892455L228.25788194444445,90.06582780185065L228.36720833333334,95.84901399113635L228.4140625,93.12521989671498L228.42968055555556,100.21838894806191L229.0544027777778,107.49087595529774L229.5073263888889,114.13035047840256L230.39755555555556,115.87330718734289L230.52249999999998,118.45735435334069L230.92856944444443,115.56599243618092L231.13160416666668,115.43221251165932L231.6157638888889,112.47200096882746L231.8187986111111,116.2177079652746L232.2873402777778,112.08090483940451L232.50599305555556,110.3581745254166L232.55284722222223,103.30696934135537L232.80273611111113,98.69066916539417L233.06824305555554,101.59005361136431L233.1931875,100.08554790090675L233.33374999999998,104.3604507903208L233.6461111111111,95.35571159761967L234.05218055555557,99.08556407101591L234.38015972222223,108.24364084996337L234.48948611111112,103.54915003462794L234.61443055555557,99.86259546089647L234.78622916666666,103.88932819458022L234.84870138888888,109.04623176858956L234.97364583333334,106.21043648700889L235.00488194444446,102.24379291807308L235.47342361111112,101.86377294490691L235.47342361111112,102.41460838420518L235.58275,103.35925760678536L236.44174305555555,100.79983263403146L236.55106944444444,110.37867004140367L236.62915972222223,108.58733021835492L237.22264583333333,102.9504502986535L237.33197222222222,104.4188386263195L237.4100625,102.64515267051763L237.45691666666667,100.06224095877944L237.9410763888889,96.44658868336651L238.26905555555555,93.11528417242951L239.50288194444443,95.24718027332202L239.799625,96.2163362898934L240.15884027777778,106.60130447965663L240.17445833333332,105.91990268233673L240.48681944444445,107.96362482230974L240.48681944444445,110.26333482557988L240.5024375,115.03942372699134L240.62738194444444,114.55271820341596L240.7210902777778,113.412194721752L240.73670833333333,114.02555979325469L241.51761111111114,116.21386317018087L242.59525694444443,120.19171486142352L242.68896527777778,119.47863844303153L243.18874305555556,116.48601919340535L243.23559722222222,122.67897771725072L243.2824513888889,123.97717914490734L243.31368750000001,126.1890137218729L243.31368750000001,128.75292953786183L243.90717361111112,118.1145571883886L244.21953472222222,112.3159267249166L244.6412222222222,116.27648640559792L244.87549305555555,117.63964874927582L245.50021527777778,119.49389349105263L245.57830555555554,131.6498581584248L245.64077777777777,134.8557627210264L246.0156111111111,135.18356345405653L246.20302777777778,130.14840147102305L246.5153888888889,128.02392934933198L246.546625,130.20929413512934L246.78089583333335,121.61277426588111L246.8589861111111,125.12313440960912L246.92145833333333,117.45841952033614L247.03078472222222,118.52991328161863L247.06202083333335,119.96069986230208L247.49932638888887,120.0040094775234L247.65550694444443,121.48562957504947L247.68674305555555,124.04351673411117L247.8429236111111,124.28256683891851L248.5145,122.40725551963195L248.85809722222223,116.76198206499794L249.23293055555555,103.35925626988687L249.24854861111112,97.74876649657999L249.4984375,94.81252646130423L249.639,91.28332028572102L249.81079861111112,83.92597929060004L250.70102777777777,90.60452345862845L251.84114583333334,94.69431222290079L252.04418055555556,94.25198169810913L252.10665277777778,86.60906386739566L252.38777777777779,85.36035942878138L252.82508333333334,86.77362825150156L253.30924305555558,82.01412856708077L253.40295138888888,90.65854320740658L253.48104166666664,84.59534355156168L254.12138194444444,82.46887455041676L254.35565277777778,77.68535643507953L254.65239583333334,73.94292096922808L255.16779166666666,76.6633109808078L256.8389236111111,70.41170833526323L257.4636458333334,73.64685055331827L257.66668055555556,78.73296686543465L257.8384791666667,83.59075775548908L257.97904166666666,85.13898235737418L258.13522222222224,91.541984008635L258.1820763888889,94.86188249018252L258.3070208333333,93.67645203673658L258.4007291666667,95.75294054622701L258.52567361111113,102.07213318239108L258.7287083333333,104.32944646799706L259.25972222222225,108.43410956045352L259.5252291666667,110.16702363760685L259.65017361111114,115.04601051272498L259.7282638888889,126.47528506590044L259.74388194444447,133.04350185445435L259.80635416666667,137.39206430741308L259.8532083333333,142.02354140752539L260.10309722222223,147.2701690769646L260.5560208333333,143.54089771806642L261.1182708333333,134.61768857444733L261.36815972222223,136.58083450376404L261.43063194444443,131.50019897679596L261.4931041666667,138.17607877543256L261.8835555555556,136.8571853273003L261.91479166666664,140.54036609560342L262.0709722222222,142.64534206819616L262.16468055555555,139.031336920196L262.3208611111111,141.76350194120212L262.4614236111111,143.56657225119133L262.72693055555555,148.7384153288516" style="fill: none;" fill="none"></path></g></g></g></g><g opacity="0.20000000298023224"><g><g><g><path stroke="rgb(255, 112, 67)" stroke-width="2px" d="M32.4699375,-107.1152753992514L32.532409722222226,15.415587330406368L33.01656944444444,85.29839352789249L33.06342361111111,10.355943319472402L33.21960416666667,120.20994491197845L33.360166666666665,46.34273457933554L33.64129166666667,43.54761967266148L33.656909722222224,48.25339849022302L33.71938194444444,107.39001138643785L34.515902777777775,66.00154368714853L34.82826388888889,44.950785162774L34.93759027777778,90.54878787560897L35.42175,90.00829646871848L35.62478472222222,87.67774284901942L35.74972916666667,-64.69234653833237L35.81220138888889,-28.645158071409583L36.18703472222222,1.7147873274304573L36.280743055555554,20.803156955675632L36.39006944444444,-8.701514655893476L36.46815972222222,-55.28791939670387L36.81175694444445,34.35841780494559L36.874229166666666,-15.483076487752527L37.2490625,20.39402080191806L37.35838888888889,-30.89719917625189L37.374006944444446,26.308244822377503L37.49895138888889,80.29490697112949L37.54580555555556,-4.447654953057139L37.76445833333333,67.3236528106711L38.60783333333333,33.21545751257375L38.81086805555555,59.722546745430336L38.82648611111111,-7.9030921005389985L38.87334027777778,69.45127643983471L39.076375000000006,24.702072255313396L39.15446527777778,-25.772956748577684L39.52929861111111,-15.59658623554489L39.56053472222222,86.16160721602763L39.76356944444445,70.23786623030901L39.85727777777778,-20.360719470137923L40.294583333333335,11.17305933074519L40.45076388888889,81.87194087288596L41.07548611111111,6.5802121128548094L41.512791666666665,71.5045887638222L41.52840972222222,72.07364068789916L41.63773611111111,102.50631712038408L41.66897222222222,113.16262766041538L42.04380555555556,98.61511046236211L42.106277777777784,14.430307302285314L42.278076388888884,64.46471035141836L42.37178472222222,63.16977418959141L42.449875,110.7270823419094L42.68414583333333,14.412384710528642L42.762236111111115,68.82155750624158L42.871562499999996,26.696028038859367L43.121451388888886,21.070338474078625L43.35572222222223,76.29951802167024L43.48066666666667,88.5230339453979L43.60561111111111,119.6915387633172L43.63684722222222,78.59014087779956L43.76179166666667,117.33038183640349L44.04291666666667,55.07307955487208L44.433368055555555,81.24488142065026L44.573930555555556,60.18275264989245L44.65202083333333,88.11162374236368L44.76134722222222,18.955896622077972L44.77696527777778,62.50528928231108L44.79258333333333,45.95710978250611L45.136180555555555,85.30213221907616L45.49539583333333,40.848670070144266L45.635958333333335,147.2229908372868L45.69843055555556,65.53466980768876L45.80775694444444,49.14239758456296L45.823375,-7.3502668670632545L45.88584722222222,38.540124622258276L46.19820833333333,51.44651056351985L46.338770833333335,41.25464568083936L46.43247916666667,93.78826742822473L46.854166666666664,33.53297646072778L47.13529166666667,123.82036429914561L47.447652777777776,61.01405256173827L47.603833333333334,75.7520502941175L48.306645833333334,36.580125405029804L48.400354166666666,45.2354267544367L48.4940625,65.2605119686235L48.650243055555556,40.326255427842796L48.69709722222222,28.92906734211877L48.69709722222222,37.5179972872138L48.85327777777778,57.3373388566754L48.900131944444446,-1.6036287153309274L49.24372916666667,17.970539507540792L49.3374375,21.01306326687336L49.618562499999996,77.84290370277382L49.88406944444444,26.74251114780253L49.8996875,-44.23958588730204L49.915305555555555,33.277011015875786L50.25890277777778,54.87789674916051L50.38384722222222,78.01526892930269L50.39946527777778,63.48451802676374L50.44631944444444,-63.047900565645904L50.63373611111111,35.977194001051515L50.64935416666667,35.41022341021082L50.727444444444444,-35.94847931103274L50.7430625,62.899663387374446L50.774298611111114,42.86116513677618L51.00856944444444,54.683292091570124L51.117895833333336,85.0875621797009L51.16475,114.80888516388154L52.19554166666667,31.70371580530295L52.632847222222225,115.3090603751215L52.74217361111111,128.2176047360355L53.00768055555556,13.95032873207873L53.851055555555554,89.11656080660494L54.3976875,-35.630574930797934L54.74128472222222,16.470052417029024L54.9599375,10.28143929825589L54.97555555555556,66.05157277123494L55.42847916666666,21.263131600889295L55.91263888888889,80.37873844870113L56.19376388888889,34.033883992921204L56.459270833333335,18.79309011115268L56.56859722222222,16.70647645538503L56.58421527777778,28.941863687200993L56.58421527777778,41.932004019618034L57.03713888888889,68.70137978345156L57.59938888888889,41.23645328662613L57.84927777777778,31.150312423706055L58.161638888888895,28.593741431832314L58.41152777777778,103.37986038828437L59.34861111111111,1.2754332985390135L59.48917361111111,73.37308640507133L59.50479166666667,110.9918356382034L59.895243055555554,187.3410551266914L60.332548611111115,83.03359462117606L60.441874999999996,-36.867272305217654L60.847944444444444,2.531055388125509L61.01974305555556,74.10486775365742L61.05097916666667,153.75510102645916L61.06659722222223,62.42581318725239L61.41019444444444,106.25321800735863L61.90997222222222,60.86743419820611L62.128625,108.31659010865471L62.34727777777778,118.1912829320539L62.75334722222222,105.9304186396978L63.23750694444445,74.86983480439945L63.315597222222216,92.68169192427938L63.89346527777778,33.829566446894944L64.00279166666667,94.28597587414762L64.04964583333333,60.24523119018836L64.23706250000001,60.34104960547252L64.28391666666667,23.95128910514441L64.5181875,9.385463883253664L64.84616666666666,27.17419507828626L64.939875,14.028378728438497L64.95549305555555,64.58114938302474L65.59583333333333,5.061725344170242L65.84572222222222,35.66526381806895L66.31426388888889,32.13439761237666L66.43920833333334,-4.628499685363323L66.61100694444445,13.44776384193787L67.37629166666666,54.136325425722376L67.65741666666666,22.309733873063863L67.68865277777778,50.01605648208748L67.751125,24.30742834779349L68.32899305555556,128.3910106291825L68.62573611111111,146.94848610934883L68.71944444444445,166.61484968594527L68.7350625,197.3071531680497L69.03180555555555,150.3418686918237L69.12551388888889,118.7514699182727L69.45349305555555,50.59805892407894L69.98450694444445,87.6489510725845L70.04697916666667,108.80030737004496L70.07821527777777,76.13432183184408L70.67170138888889,125.6222592768344L70.68731944444446,51.551463719118715L71.10900694444445,124.26037356257439L71.32765972222222,98.97575926035641L71.84305555555555,-42.306412742896526L72.13979861111112,47.30535120110619L72.84261111111111,112.49486658044836L72.96755555555555,76.19232936000282L73.07688194444444,69.84368484128605L73.56104166666667,55.12495871294628L73.73284027777778,9.00469553064218L74.29509027777777,51.755280203439966L74.31070833333332,104.6313583546064L74.56059722222223,148.57601161368868L74.85734027777778,83.55454462157053L75.43520833333332,108.54661597446962L75.46644444444443,98.6434397203001L75.57577083333332,116.7175448279489L75.90375,13.844142193821341L75.91936805555555,81.13672917878085L76.59094444444445,114.7810184244405L76.7158888888889,72.18379717658866L76.74712500000001,113.7220437824726L77.01263194444444,103.56159161437641L77.02825,105.1412849974903L77.07510416666666,167.99143963408739L77.35622916666667,46.22232559729704L77.52802777777778,70.90686069293456L77.71544444444444,99.2927771468054L77.79353472222222,75.21549029445106L78.01218750000001,91.98008990761907L78.16836805555556,152.55336234176698L78.19960416666667,141.94615584882823L79.0273611111111,8.1462612003088L79.1054513888889,99.7751453959129L79.49590277777779,30.81575737758115L79.65208333333334,31.919480684128672L79.74579166666668,82.22908223894508L79.79264583333332,40.026659071445465L79.90197222222221,101.02591104128143L80.33927777777778,113.27043301341207L80.52669444444444,44.76307973942974L80.55793055555556,96.59521509977903L80.74534722222222,127.4677851660685L80.91714583333334,126.10235347666523L81.02647222222222,65.75887564908373L81.21388888888887,47.78236194429073L81.96355555555556,67.71933738480914L82.15097222222222,32.451492585241795L82.57265972222223,188.74666811051694L82.65075,132.2723116827282L82.79131249999999,157.48049480332568L83.213,91.35549722070043L83.52536111111111,118.55883096429434L83.54097916666667,106.35435538535768L83.6346875,66.02174032818186L83.85334027777778,92.0439945466139L83.88457638888889,84.33207675814629L84.69671527777777,44.71894776617938L84.7591875,34.769750921563656L84.86851388888888,57.87347488105297L85.63379861111112,50.2208365466107L85.83683333333333,94.65649173341014L86.00863194444445,173.75879476016217L86.7270625,-33.17652887241408L86.78953472222223,-9.755363051186919L87.10189583333334,133.1305147538131L87.58605555555555,29.828049127351136L87.82032638888889,42.94596019454977L88.32010416666667,147.07907049832016L88.46066666666667,117.73250312629071L88.53875694444446,159.50859986922956L88.55437500000001,114.92937123233622L88.6949375,111.98983492499048L88.88235416666666,67.12407607923853L89.02291666666666,88.15903188830072L89.41336805555555,120.24868083609775L89.49145833333334,129.7416031834754L89.50707638888889,70.59173142368142L89.63202083333334,111.16766975345935L89.88190972222223,103.82052488625048L90.64719444444444,76.00759176368062L90.92831944444444,10.155364464629798L91.25629861111112,96.50988043709235L91.30315277777778,30.25680377402088L91.83416666666666,126.29587892442942L91.99034722222223,135.09055251424962L92.05281944444444,79.1336001117121L92.13090972222223,95.97436110404404L92.39641666666667,54.45473086766221L92.92743055555556,135.71225446056235L93.17731944444444,42.555132064629674L93.63024305555555,19.954666773026645L93.91136805555556,44.51108424500987L93.98945833333333,165.17441291362047L94.08316666666667,208.60339659181506L95.11395833333333,186.70919704504988L95.37946527777778,73.91650709577583L95.42631944444445,117.02446439388123L95.97295138888889,5.571420727805645L96.3165486111111,102.13079064407131L96.36340277777778,113.69714487005363L96.5352013888889,122.74940271946517L96.58205555555556,65.68475705994801L96.64452777777778,116.62415463477373L97.34734027777779,104.87680150365287L97.3785763888889,48.950336778705775L97.59722916666666,-10.076620690524578L97.67531944444444,53.25222131880845L98.12824305555556,9.707530929960996L98.39375,75.51181047816168L98.65925694444445,-6.692565564404845L98.65925694444445,5.108439712361843L99.09656249999999,20.383652678944856L99.1277986111111,-34.19487897306681L100.09611805555556,94.95007534934716L100.12735416666668,104.85714446753262L100.56465972222222,96.8201918053356L100.61151388888888,113.3102096041495L100.76769444444444,157.17473153363574L100.7833125,173.50691489536652L100.95511111111111,161.11203586852008L101.00196527777777,155.5938433110714L101.18938194444445,129.4079731743444L101.31432638888889,149.73920709030193L101.45488888888889,104.48870994150637L101.50174305555556,102.40336821160533L101.57983333333334,127.52675627442923L101.9390486111111,89.1403805091977L102.00152083333333,81.63940969854593L103.28220138888888,41.531231742013574L103.32905555555556,83.29279769550669L103.54770833333333,99.64032125405289L103.90692361111111,46.02490728551692L103.98501388888889,120.66016812554813L104.23490277777778,80.43728558177297L104.39108333333334,103.77650854262437L104.73468055555554,103.72755866836417L104.7502986111111,60.91908209703185L104.90647916666666,85.94665174457158L104.96895138888888,28.740475424988716L105.17198611111111,-0.20273727449503554L105.71861805555555,111.1779993332245L105.78109027777778,156.21192219582468L105.8435625,135.30462149191985L105.93727083333334,9.602963206442922L106.10906944444446,94.24955254251306L106.4058125,75.21286935630168L106.64008333333334,82.68443169918926L106.8275,103.21204326030882L106.9680625,93.43833364207636L107.51469444444444,55.17460236495191L108.07694444444444,12.40551695227623L108.0925625,56.88661458140069L108.40492361111112,27.887051711705595L108.59234027777778,78.8171603733843L109.10773611111112,44.240588010712116L109.71684027777778,19.740289449691772L109.74807638888889,78.78597891804846L109.7793125,40.23564034564927L109.98234722222223,19.337281666018754L110.32594444444445,6.338700371032417L110.4508888888889,-9.320210231976063L110.63830555555555,28.63128251650116L110.76325,23.23939605192706L111.3255,32.65318919311869L111.48168055555556,49.51591981405562L111.52853472222222,60.67325351590459L112.41876388888889,0.591406984762699L112.43438194444444,-85.01020596108651L113.05910416666667,-17.860768450932056L113.13719444444445,87.08849428390914L113.16843055555556,70.6798797405579L113.4027013888889,84.91670013828711L113.65259027777778,73.54699335992336L113.65259027777778,79.38359135931188L114.05865972222222,58.60479371114211L114.19922222222222,84.07144758511673L114.3085486111111,47.84248934889382L114.43349305555556,79.25231319259512L114.5584375,29.73647046495566L114.87079861111111,31.67384481904182L115.23001388888889,64.81969329782508L115.24563194444444,15.973461724140435L115.41743055555555,47.15503268959847L115.46428472222222,3.735492097383201L115.6829375,44.94053266942501L115.76102777777778,56.313939595764325L115.80788194444445,66.13690743392164L115.88597222222222,88.60312673178585L115.9640625,65.7046838985248L116.0733888888889,36.17958438667384L116.37013194444445,74.54765212806787L116.38574999999999,110.07739802653138L116.65125694444444,113.3295968378132L116.68249305555555,113.08554124425757L116.86990972222222,84.52398339117114L116.91676388888888,60.09626169096339L116.93238194444444,108.00458283925597L117.24474305555556,97.49770431694658L117.29159722222222,48.08157286860725L117.38530555555556,103.34521004422145L117.43215972222222,4.559815688566715L117.93193749999999,80.88654521514069L118.07249999999999,99.32646391066636L118.15059027777777,105.91978071426803L118.4941875,162.7470387552272L118.68160416666667,132.06629823554644L118.69722222222222,106.75435679880054L118.69722222222222,110.9346375174143L119.16576388888889,14.388487921519726L119.25947222222223,68.35811397230083L120.39959027777778,20.937557122246773L120.82127777777777,103.4572551501068L120.97745833333333,83.1447917764837L121.21172916666666,63.94187173382802L121.28981944444445,-6.521356634118348L121.41476388888888,69.39951291138475L121.47723611111111,96.83090681718154L121.55532638888889,53.54538095945662L121.78959722222223,85.30930125577883L122.10195833333334,85.3002050586722L122.19566666666667,60.21158296953547L122.36746527777777,33.67238724434918L122.47679166666666,123.1975060565905L122.49240972222222,54.897862130945384L123.05465972222223,74.50301909311251L123.61690972222223,67.37753621556543L123.94488888888888,120.9894812953743L124.538375,80.91340983117168L124.69455555555555,134.63944280689412L124.74140972222223,118.29373077912763L124.85073611111112,89.8286465758627L124.9600625,80.26145146651702L125.02253472222223,113.84946762838146L125.16309722222223,97.6807460121133L125.25680555555554,61.887326027182L126.02209027777778,32.41048261184582L126.225125,25.123156803575426L126.25636111111112,7.54845604300499L126.38130555555556,45.981777435676605L126.63119444444443,52.13092230937697L126.70928472222224,75.79163416881453L127.2090625,64.81822865591808L127.22468055555555,37.77874208986759L127.349625,78.46564631570469L128.03681944444443,38.09726316143164L128.09929166666666,49.333456267010064L128.34918055555556,134.26410904662174L128.52097916666668,49.07494697042486L129.25502777777777,97.17852801084517L129.81727777777778,10.58315553109756L130.17649305555557,34.39935069192538L130.39514583333332,50.696806623177096L130.8636875,121.39830910346723L130.98863194444445,48.69965175336057L131.2229027777778,109.4883036342534L131.4571736111111,52.42219333282925L131.69144444444444,63.51068886504932L131.7851527777778,105.36525957963683L131.94133333333332,70.23443588478999L132.26931249999998,81.74798591570419L132.42549305555556,28.295840976590455L132.87841666666668,0.38319657472047197L133.01897916666667,29.62488787756726L133.2220138888889,102.31217498129064L133.30010416666667,127.79208771884441L133.3938125,139.82207819480786L133.48752083333332,121.66788030077109L133.5968472222222,124.15831114758143L133.62808333333334,161.68374727395445L133.76864583333332,120.18986390056935L134.04977083333333,104.33823725716634L134.36213194444446,113.49641184237869L134.36213194444446,119.9171707034111L134.39336805555556,118.79413724961606L134.61202083333333,68.23219331150705L135.18988888888887,55.33914332024075L135.47101388888888,59.99157833782108L135.8927013888889,60.48820757391776L135.9239375,196.17579438130963L136.08011805555557,157.43543779308143L136.45495138888887,148.50331912325186L136.6892222222222,103.83594216948205L137.01720138888888,105.57593675499612L137.40765277777777,23.528393026102663L137.53259722222222,25.260139365087838L137.59506944444445,35.95888597721404L137.6419236111111,-35.08017791943118L138.04799305555557,26.252010281790376L138.07922916666666,21.907072978263557L138.39159027777777,-3.747479035095722L138.57900694444444,92.8422629291361L138.81327777777778,89.26907628097317L139.07878472222222,81.19535339826886L139.34429166666666,22.665796029296786L139.53170833333334,66.45265339450403L139.65665277777777,55.87493245574559L140.06272222222222,162.33620670031416L140.21890277777777,110.80023735084316L140.2501388888889,151.4729962193153L140.32822916666666,84.50725563886489L140.37508333333335,130.836577181789L140.54688194444446,132.23002978346562L141.18722222222223,65.59818901460278L142.2804861111111,129.63083000345662L142.32734027777778,192.85105725242332L142.79588194444443,101.62309950725599L142.8115,102.97380769117312L142.85835416666666,39.97809462926605L142.92082638888888,81.25544225966388L143.06138888888887,37.25783063268119L143.15509722222222,107.47457518496296L143.2019513888889,59.753920916806564L143.654875,105.07595425979657L144.0453263888889,104.43771727721798L144.42015972222222,124.03296863490883L144.70128472222223,56.35302240875633L144.8887013888889,185.2275575832887L144.90431944444447,113.02895981479774L145.49780555555554,81.35600148954175L145.5446597222222,154.79873547161165L145.77893055555555,108.30834186212583L145.84140277777777,132.95722449029032L145.87263888888887,134.9741520258513L145.91949305555556,164.93875973942605L146.38803472222222,107.33905726535752L146.63792361111112,139.40750744871116L146.65354166666665,102.10654696618968L146.71601388888888,102.05817524005066L146.74725,155.40243773975155L146.87219444444446,121.36415982110933L147.37197222222224,92.2490058703856L147.5281527777778,48.185986419293016L147.77804166666664,77.70796393128957L147.79365972222223,66.25785602087323L147.98107638888888,120.05523247474972L148.57456249999998,90.45339343561368L149.07434027777776,30.485981689258068L149.40231944444446,59.790498421273455L149.43355555555556,145.6230237267234L149.7771527777778,96.14028961482371L149.91771527777777,141.7825013873252L150.44872916666668,120.81530453806573L150.90165277777777,140.32055750489235L151.02659722222222,49.758510765704244L151.07345138888888,131.47288700396362L151.71379166666665,31.464131223884493L151.93244444444443,71.60333646292035L152.05738888888888,88.03033611652525L152.07300694444444,22.35594717955047L152.32289583333332,81.03462822057985L152.57278472222222,159.5284881645983L153.02570833333334,85.38199374621564L154.15020833333332,93.28080755065787L154.337625,76.47411875426769L154.4000972222222,149.50216636061668L154.4469513888889,89.75861356678334L154.80616666666666,112.67960417677055L154.83740277777778,146.55179941180077L154.97796527777777,146.17712088606572L155.13414583333332,137.39863544363865L156.00875694444446,94.31102895939891L156.11808333333335,96.60261539573018L156.61786111111113,109.44883538918062L156.91460416666666,117.40465459837154L157.08640277777778,126.4347501031377L157.5393263888889,99.24721907485615L157.64865277777778,52.06933026286687L157.72674305555554,15.349370098926812L157.75797916666667,27.26415492594242L158.11719444444444,96.15840492262082L158.67944444444444,140.57436453009194L158.85124305555556,149.33334710923106L158.99180555555557,65.62852251936089L159.35102083333334,7.601568583737702L159.6165277777778,86.0767350718379L160.11630555555556,81.63143125447358L160.53799305555555,104.6271571449258L160.7410277777778,38.202331946654766L160.78788194444445,27.527250864289016L161.3345138888889,92.23250937732783L161.36575,97.05518974499269L161.6156388888889,71.35242017832668L162.0060902777778,86.15829250013286L162.49024999999997,84.0415380556475L162.49024999999997,88.93051274120806L162.69328472222222,22.57730082354763L162.75575694444444,24.734641266140073L162.86508333333333,104.33222451670603L163.1930625,64.89473692395471L163.3960972222222,33.12781025740233L164.50497916666666,70.61462608928029L164.73925,144.9261625246568L165.00475694444447,83.4892138838768L165.19217361111112,80.20167095078664L165.48891666666665,82.14579036628658L165.56700694444447,88.17791806025939L165.84813194444445,153.49955955689603L165.91060416666664,161.3887761025266L166.01993055555553,134.08380391922861L166.1136388888889,107.82963521778582L166.25420138888887,64.06702153046022L166.26981944444444,132.19510963694614L166.44161805555555,106.393592371182L166.45723611111111,108.16920088096097L166.45723611111111,114.65579154139215L166.4884722222222,76.54307255352084L166.62903472222223,36.02903461591765L166.91015972222223,69.1359544545412L167.03510416666666,119.93806112218985L167.14443055555554,40.40291786871174L167.31622916666666,-2.239052043719738L167.45679166666667,36.69930100440979L167.53488194444446,83.06354269385338L167.9097152777778,48.60391042449257L168.2220763888889,71.12806016409938L168.33140277777775,-26.115336065942614L168.37825694444442,79.68819833275946L168.48758333333336,4.30173036727038L168.5656736111111,96.70606536621396L168.61252777777776,111.4577459374612L168.62814583333332,68.49251413887197L168.65938194444442,104.41308816725557L168.8467986111111,65.8912330256267L168.9248888888889,62.62824211608279L169.08106944444444,30.04030657424167L169.19039583333333,90.46183439818294L169.47152083333333,136.58344659276983L169.62770138888888,102.22182970155369L170.00253472222224,188.56428164988756L170.01815277777777,80.809034823694L170.26804166666668,112.50800981440327L170.56478472222224,114.66781702231276L171.42377777777776,62.295768403194174L171.50186805555555,40.08933032778177L171.6268125,50.638606378977954L171.64243055555553,109.30190867998382L171.72052083333332,-8.453913087194593L171.9391736111111,-6.82476876811549L172.20468055555554,46.66834760118613L172.20468055555554,54.155365770513356L172.2983888888889,101.07046698982064L172.61075,90.27944793755357L172.79816666666667,91.19053229012272L172.93872916666666,132.0750090005723L173.2823263888889,81.18448421359062L173.46974305555557,124.60718534886837L173.64154166666668,123.22001529010859L173.86019444444446,89.03824100778861L174.28188194444442,126.80430238219824L174.62547916666665,119.63673032142898L175.3126736111111,101.49413393302397L175.32829166666667,60.712991563433945L175.99986805555557,88.11208626086061L176.0623402777778,38.17716323177922L176.42155555555556,76.13655733791263L176.89009722222224,70.60830500315535L177.3586388888889,78.86156214909118L177.4211111111111,122.84394920888272L177.6397638888889,141.72322193329984L177.93650694444443,113.80394809964027L178.06145138888888,123.37334017184648L178.38943055555555,85.13724437491459L178.76426388888888,66.66741614991967L179.076625,101.34196534752844L179.27965972222222,62.21421097489919L179.42022222222224,109.29882522333752L179.4670763888889,78.35926706140691L179.638875,155.87093043395063L179.81067361111113,69.52288972044532L179.98247222222224,103.02268047901715L180.34168749999998,106.47561231797391L180.5134861111111,133.74157877469605L180.7946111111111,74.14803614670579L180.91955555555555,179.11221510307354L181.37247916666666,121.94284754720601L181.7160763888889,105.78869526359166L181.7473125,143.15895643423903L181.95034722222223,153.67196332663298L182.15338194444445,83.1276015056805L183.38720833333332,100.76150463386016L183.51215277777777,98.81649872457439L183.52777083333334,132.0040894977071L183.69956944444445,43.913356174122185L183.7464236111111,102.38648628646676L183.93384027777776,25.97311162813142L184.12125694444444,85.00743085010485L184.2462013888889,91.35395549237727L184.5585625,69.27898829972202L184.60541666666666,29.93018862876025L184.71474305555554,101.06896380470558L184.79283333333333,150.41826133023608L184.87092361111112,88.55552586980842L185.2301388888889,144.0111467648636L185.27699305555555,150.0820103829557L185.30822916666668,99.00701780210841L185.35508333333334,102.0177048715678L185.82362500000002,107.82967376099391L186.0266597222222,67.26279308511452L186.21407638888888,91.79539085450497L186.76070833333333,110.26961300522088L186.93250694444444,146.97589033029294L187.18239583333335,167.69022446295077L187.24486805555554,147.09764832461423L187.32295833333333,102.0166256617416L187.3698125,123.2740528678352L187.68217361111112,109.7868593240326L187.7915,12.710162468931884L187.8227361111111,74.1312313079834L187.86959027777777,65.57594958354126L187.9008263888889,102.94964109970765L188.4943125,172.73123283277857L188.4943125,179.28695073689926L188.50993055555557,151.9761778007854L188.83790972222224,177.37002355469897L188.8691458333333,183.98172546855426L189.10341666666665,153.22019838474012L189.32206944444442,136.1183457008817L189.3376875,135.92547548765486L189.38454166666665,158.4848151762377L189.8218472222222,134.0666907348416L189.93117361111112,152.7124687047167L190.00926388888888,110.38743959231809L190.02488194444445,164.72669500857592L190.321625,160.73365719480947L190.39971527777777,46.00548150864515L190.50904166666666,141.90244785086674L190.8526388888889,138.69773427193815L191.0244375,96.2221939319914L191.19623611111112,72.84018801017241L191.52421527777778,88.14473235810344L191.6179236111111,37.12057826871222L191.63354166666667,59.00938176634635L191.7741041666667,128.87599981643936L191.7897222222222,71.67375490408051L191.80534027777776,96.41737673770297L191.83657638888891,19.45992615412581L191.9302847222222,-9.288604801351397L192.78927777777778,43.3190199055455L192.78927777777778,54.37980287115681L192.92984027777777,139.38399609178305L192.9610763888889,48.69425570422953L193.2422013888889,29.142057109962792L193.49209027777778,143.4065580029379L193.49209027777778,148.40962058441204L193.5233263888889,70.3113295849074L193.5233263888889,77.29435676539485L193.8356875,92.62426254424182L193.89815972222223,110.27512468397616L194.0855763888889,124.28712254898113L194.35108333333335,96.9680050083182L194.5385,95.11029946533115L194.5385,102.91452823714776L194.81962499999997,26.560510119253934L195.11636805555554,125.30146415599367L195.42872916666667,73.68825421753253L195.49120138888887,68.5467058894309L195.50681944444443,58.43778599053621L195.74109027777777,42.77748783203688L195.81918055555556,109.71262510527264L195.85041666666666,77.89913824336094L196.35019444444444,64.13273770023476L196.84997222222222,163.78976743498984L197.0373888888889,142.19460536810485L197.16233333333335,137.49988845126194L197.6933472222222,167.94129492037675L197.70896527777776,167.6818798584017L197.75581944444443,160.913191458041L198.27121527777777,159.28385442292148L198.41177777777776,123.54327717626634L199.0052638888889,165.32721746204928L199.30200694444446,111.08580397949977L199.317625,96.61032403734596L199.91111111111113,158.1926576589996L199.9892013888889,158.75731565735555L200.53583333333336,95.64928768710656L200.64515972222225,53.553320860320866L200.8638125,11.995417218316675L200.87943055555556,-4.081186130642891L201.19179166666666,13.066108995540588L201.37920833333334,38.69869138029489L201.4260625,37.89024759083986L201.58224305555555,23.99584505368361L201.6290972222222,16.609193398193867L201.80089583333333,41.397640982812106L201.84775,105.57551277970725L202.31629166666667,70.72886815802617L202.7692152777778,119.32668875564227L203.01910416666666,137.35226796431974L203.0815763888889,88.41831204904751L203.73753472222222,51.49788865988904L204.75270833333335,114.79188760911876L204.940125,62.31658173555677L205.04945138888888,117.80816344374958L205.25248611111112,93.70963928374377L205.31495833333332,146.83983280577442L205.3930486111111,50.03448013554919L205.43990277777777,82.59832617234099L205.48675694444444,72.87044442851435L205.502375,21.141296520151883L205.6117013888889,71.27028460191055L205.83035416666667,87.76943714103915L206.36136805555557,95.36268039183183L206.39260416666664,103.3661004630002L206.7205833333333,133.64780314944005L206.98609027777778,128.14367886294016L207.28283333333331,162.79731837016612L207.98564583333334,30.96156633374366L208.0012638888889,20.678392591124236L208.1105902777778,127.56464424797079L208.9539652777778,30.05229351195422L209.00081944444446,101.43346692350777L209.09452777777778,105.48135172237049L209.48497916666665,113.40020799501374L209.5005972222222,141.35551972822708L209.5786875,140.76257101514122L209.59430555555554,100.22575404156338L209.62554166666666,145.63682219521564L210.29711805555556,93.87938357212326L210.3127361111111,131.75417533652347L210.32835416666666,112.16474400325254L211.46847222222223,128.12710528346625L211.49970833333333,112.78991483829238L211.49970833333333,119.44297361441633L211.64027083333335,104.3596672808582L211.74959722222223,114.24819711595774L211.8276875,130.36295824091542L211.92139583333335,118.01406126130709L211.95263194444445,138.22257360274142L211.9994861111111,131.63738941604439L212.03072222222224,120.5462344024669L212.0775763888889,95.72063116526061L212.26499305555558,100.34261704845862L212.3430833333333,156.42298480326477L212.54611805555555,60.77967131341045L212.5617361111111,65.33412949605422L212.6242083333333,95.5001254718412L212.88971527777778,93.4992704540491L213.07713194444443,114.95797029273075L213.34263888888887,100.6095673076131L213.46758333333332,119.82906092974272L213.655,202.75458039546552L213.81118055555555,156.605294177478L213.92050694444444,162.8770257244733L214.17039583333334,126.85764618217945L215.06062500000002,129.94117991490796L215.43545833333332,67.88326164876872L215.91961805555556,139.4043469056487L216.0757986111111,76.63950766013427L216.15388888888887,90.23959426039998L216.31006944444445,28.560363013635964L216.7786111111111,143.08210127732968L216.8879375,61.32471081885423L217.1690625,90.53576027127829L217.32524305555557,105.88204691355878L217.4189513888889,118.11373399739915L218.0905277777778,146.67822113429958L218.16861805555558,166.06090669943526L218.84019444444445,133.15159788863224L219.26188194444444,159.13519326936114L219.558625,144.50951044532385L219.57424305555554,28.658802367069512L219.79289583333335,125.74447978965259L220.10525694444445,95.80573456869884L220.48009027777778,125.03416700796646L220.85492361111113,161.61090061068535L220.87054166666667,153.20613011379132L220.9330138888889,192.071289609779L221.1672847222222,83.78326001831077L221.33908333333332,48.41755401343107L221.4484097222222,139.88602137701076L221.90133333333333,73.18021619184451L222.651,109.86039976504715L222.99459722222224,68.04479623382741L223.02583333333334,80.35881161012433L223.49437500000002,29.638879062099903L223.85359027777778,8.450444198467522L224.0878611111111,106.66112077845767L224.2596597222222,80.73934870348734L224.32213194444444,84.9496160379865L224.82190972222222,44.768591418185025L225.27483333333333,93.46963072703643L225.50910416666667,77.11829139089042L225.63404861111113,95.76507148417558L225.6809027777778,128.36395329711112L225.94640972222223,68.01033860580488L226.1650625,110.67366145551203L226.2743888888889,98.42863842167637L226.5242777777778,94.64176822792399L226.82102083333334,125.97211597656661L227.4925972222222,160.62423302707344L228.07046527777777,5.330834022977143L228.25788194444445,72.32690810818563L228.36720833333334,147.89768969470802L228.4140625,68.61107304692268L228.42968055555556,164.05691041018474L229.0544027777778,172.9432590204206L229.5073263888889,173.88562118634582L230.39755555555556,131.5599175678058L230.52249999999998,141.7137788473205L230.92856944444443,89.54373518174344L231.13160416666668,114.22819319096479L231.6157638888889,85.83009708334099L231.8187986111111,149.92907093329862L232.2873402777778,74.84967670657419L232.50599305555556,94.85360169952565L232.55284722222223,39.84612268480387L232.80273611111113,57.14396758174354L233.06824305555554,127.68451362509617L233.1931875,86.54499650678851L233.33374999999998,142.83457679504698L233.6461111111111,14.313058863309294L234.05218055555557,132.65423633158207L234.38015972222223,190.6663318604908L234.48948611111112,61.298732696609065L234.61443055555557,66.68360429731281L234.78622916666666,140.12992279773408L234.84870138888888,155.45836393467403L234.97364583333334,80.6882789527828L235.00488194444446,66.54400079765104L235.47342361111112,98.44359318641098L235.47342361111112,107.37212733788922L235.58275,111.86110061000693L236.44174305555555,77.76500787924635L236.55106944444444,196.5882067077539L236.62915972222223,92.46527181091633L237.22264583333333,52.218531021340326L237.33197222222222,117.63433357531372L237.4100625,86.68197906830095L237.45691666666667,76.81603555313565L237.9410763888889,63.90571820465L238.26905555555555,63.133543573997244L239.50288194444443,114.43424518135461L239.799625,104.93874043903567L240.15884027777778,200.06601818752557L240.17445833333332,99.78728650645776L240.48681944444445,126.35712408206678L240.48681944444445,130.96072485501114L240.5024375,158.0242238396948L240.62738194444444,110.1723684912378L240.7210902777778,103.14748338677666L240.73670833333333,119.54584543677893L241.51761111111114,135.90859356251627L242.59525694444443,155.99238008260727L242.68896527777778,113.06095067750323L243.18874305555556,89.55244594676928L243.23559722222222,178.41560443185946L243.2824513888889,135.6609919938174L243.31368750000001,146.0955249145627L243.31368750000001,151.82817188176242L243.90717361111112,22.369206043129623L244.21953472222222,60.12825255366887L244.6412222222222,151.92152353172952L244.87549305555555,129.90810984237626L245.50021527777778,136.1820961670442L245.57830555555554,241.0535401647741L245.64077777777777,163.7089037844403L246.0156111111111,138.13377005132762L246.20302777777778,84.8319436237216L246.5153888888889,108.90368025411259L246.546625,149.8775772073052L246.78089583333335,44.24409544264728L246.8589861111111,156.7163757031614L246.92145833333333,48.475985516878694L247.03078472222222,128.17335713316092L247.06202083333335,132.8377790884538L247.49932638888887,120.39379601451483L247.65550694444443,134.82021045278418L247.68674305555555,147.06450116566634L247.8429236111111,126.43401778218421L248.5145,105.52945364605296L248.85809722222223,65.95452097329225L249.23293055555555,-17.265275886113017L249.24854861111112,47.25435853681782L249.4984375,68.38636614382267L249.639,59.520464705472634L249.81079861111112,17.70991033451125L250.70102777777777,150.71142097088423L251.84114583333334,131.50241110135207L252.04418055555556,90.27100697498429L252.10665277777778,17.822803390974343L252.38777777777779,74.12201948125254L252.82508333333334,99.4930476559834L253.30924305555558,39.17863140729341L253.40295138888888,168.4582749703391L253.48104166666664,30.02654664895752L254.12138194444444,63.33065354011275L254.35565277777778,34.633693397045135L254.65239583333334,40.261001776565195L255.16779166666666,101.14682108502495L256.8389236111111,14.147284525361925L257.4636458333334,102.76313051581381L257.66668055555556,124.50801367448133L257.8384791666667,127.31087576597929L257.97904166666666,99.0730037743395L258.13522222222224,149.16899886998263L258.1820763888889,124.74096882411024L258.3070208333333,83.00757795572281L258.4007291666667,114.44133713164112L258.52567361111113,158.9448669078675L258.7287083333333,124.64526603845033L259.25972222222225,145.37607739256185L259.5252291666667,125.76325033198702L259.65017361111114,158.95689238878813L259.7282638888889,229.3387560444799L259.74388194444447,192.15745295143938L259.80635416666667,176.52912638404152L259.8532083333333,183.70683530853552L260.10309722222223,194.48981810191813L260.5560208333333,109.97745548798278L261.1182708333333,54.308806281875476L261.36815972222223,154.24914786761457L261.43063194444443,85.77447923408312L261.4931041666667,198.2589969631623L261.8835555555556,124.98714429411021L261.91479166666664,173.68899301033127L262.0709722222222,161.59012582153082L262.16468055555555,106.50529058819467L262.3208611111111,166.3529871302572L262.4614236111111,159.79420504109424L262.72693055555555,195.285003027794" style="fill: none;" fill="none"></path></g></g></g></g></g></g><g transform="translate(48, 177)" clip-path="url(#clip_1)"><clipPath id="clip_1"><rect width="281" height="22"></rect></clipPath><g><g><line x1="0" y1="0" x2="0" y2="5" style="visibility: inherit;" fill="rgb(0, 0, 0)" stroke="rgb(204, 204, 204)" stroke-width="1px"></line><line x1="31.23611111111111" y1="0" x2="31.23611111111111" y2="5" style="visibility: inherit;" fill="rgb(0, 0, 0)" stroke="rgb(204, 204, 204)" stroke-width="1px"></line><line x1="62.47222222222222" y1="0" x2="62.47222222222222" y2="5" style="visibility: inherit;" fill="rgb(0, 0, 0)" stroke="rgb(204, 204, 204)" stroke-width="1px"></line><line x1="93.70833333333333" y1="0" x2="93.70833333333333" y2="5" style="visibility: inherit;" fill="rgb(0, 0, 0)" stroke="rgb(204, 204, 204)" stroke-width="1px"></line><line x1="124.94444444444444" y1="0" x2="124.94444444444444" y2="5" style="visibility: inherit;" fill="rgb(0, 0, 0)" stroke="rgb(204, 204, 204)" stroke-width="1px"></line><line x1="156.18055555555557" y1="0" x2="156.18055555555557" y2="5" style="visibility: inherit;" fill="rgb(0, 0, 0)" stroke="rgb(204, 204, 204)" stroke-width="1px"></line><line x1="187.41666666666666" y1="0" x2="187.41666666666666" y2="5" style="visibility: inherit;" fill="rgb(0, 0, 0)" stroke="rgb(204, 204, 204)" stroke-width="1px"></line><line x1="218.65277777777777" y1="0" x2="218.65277777777777" y2="5" style="visibility: inherit;" fill="rgb(0, 0, 0)" stroke="rgb(204, 204, 204)" stroke-width="1px"></line><line x1="249.88888888888889" y1="0" x2="249.88888888888889" y2="5" style="visibility: inherit;" fill="rgb(0, 0, 0)" stroke="rgb(204, 204, 204)" stroke-width="1px"></line><line x1="281.125" y1="0" x2="281.125" y2="5" style="visibility: inherit;" fill="rgb(0, 0, 0)" stroke="rgb(204, 204, 204)" stroke-width="1px"></line></g><g transform="translate(0, 8)"><text x="0" y="0" dx="0em" dy="0.95em" style="text-anchor: middle; visibility: hidden; font-family: &quot;Helvetica Neue&quot;, sans-serif; font-size: 12px; font-weight: 200;" fill="rgb(50, 49, 63)" stroke="none" stroke-width="1px">-2k</text><text x="31.23611111111111" y="0" dx="0em" dy="0.95em" style="text-anchor: middle; visibility: inherit; font-family: &quot;Helvetica Neue&quot;, sans-serif; font-size: 12px; font-weight: 200;" fill="rgb(50, 49, 63)" stroke="none" stroke-width="1px">0</text><text x="62.47222222222222" y="0" dx="0em" dy="0.95em" style="text-anchor: middle; visibility: inherit; font-family: &quot;Helvetica Neue&quot;, sans-serif; font-size: 12px; font-weight: 200;" fill="rgb(50, 49, 63)" stroke="none" stroke-width="1px">2k</text><text x="93.70833333333333" y="0" dx="0em" dy="0.95em" style="text-anchor: middle; visibility: inherit; font-family: &quot;Helvetica Neue&quot;, sans-serif; font-size: 12px; font-weight: 200;" fill="rgb(50, 49, 63)" stroke="none" stroke-width="1px">4k</text><text x="124.94444444444444" y="0" dx="0em" dy="0.95em" style="text-anchor: middle; visibility: inherit; font-family: &quot;Helvetica Neue&quot;, sans-serif; font-size: 12px; font-weight: 200;" fill="rgb(50, 49, 63)" stroke="none" stroke-width="1px">6k</text><text x="156.18055555555557" y="0" dx="0em" dy="0.95em" style="text-anchor: middle; visibility: inherit; font-family: &quot;Helvetica Neue&quot;, sans-serif; font-size: 12px; font-weight: 200;" fill="rgb(50, 49, 63)" stroke="none" stroke-width="1px">8k</text><text x="187.41666666666666" y="0" dx="0em" dy="0.95em" style="text-anchor: middle; visibility: inherit; font-family: &quot;Helvetica Neue&quot;, sans-serif; font-size: 12px; font-weight: 200;" fill="rgb(50, 49, 63)" stroke="none" stroke-width="1px">10k</text><text x="218.65277777777777" y="0" dx="0em" dy="0.95em" style="text-anchor: middle; visibility: inherit; font-family: &quot;Helvetica Neue&quot;, sans-serif; font-size: 12px; font-weight: 200;" fill="rgb(50, 49, 63)" stroke="none" stroke-width="1px">12k</text><text x="249.88888888888889" y="0" dx="0em" dy="0.95em" style="text-anchor: middle; visibility: inherit; font-family: &quot;Helvetica Neue&quot;, sans-serif; font-size: 12px; font-weight: 200;" fill="rgb(50, 49, 63)" stroke="none" stroke-width="1px">14k</text><text x="281.125" y="0" dx="0em" dy="0.95em" style="text-anchor: middle; visibility: hidden; font-family: &quot;Helvetica Neue&quot;, sans-serif; font-size: 12px; font-weight: 200;" fill="rgb(50, 49, 63)" stroke="none" stroke-width="1px">16k</text></g><line x1="0" y1="0" x2="281.125" y2="0" fill="rgb(0, 0, 0)" stroke="rgb(204, 204, 204)" stroke-width="1px"></line></g></g></g></g></svg>