<svg viewBox="0 0 330 200" xmlns="http://www.w3.org/2000/svg"><g><g><g><g><g><line x1="48.875" y1="177.828125" x2="43.875" y2="177.828125" style="visibility: inherit;" fill="rgb(0, 0, 0)" stroke="rgb(204, 204, 204)" stroke-width="1px"></line><line x1="48.875" y1="158.06944444444446" x2="43.875" y2="158.06944444444446" style="visibility: inherit;" fill="rgb(0, 0, 0)" stroke="rgb(204, 204, 204)" stroke-width="1px"></line><line x1="48.875" y1="138.3107638888889" x2="43.875" y2="138.3107638888889" style="visibility: inherit;" fill="rgb(0, 0, 0)" stroke="rgb(204, 204, 204)" stroke-width="1px"></line><line x1="48.875" y1="118.55208333333334" x2="43.875" y2="118.55208333333334" style="visibility: inherit;" fill="rgb(0, 0, 0)" stroke="rgb(204, 204, 204)" stroke-width="1px"></line><line x1="48.875" y1="98.79340277777781" x2="43.875" y2="98.79340277777781" style="visibility: inherit;" fill="rgb(0, 0, 0)" stroke="rgb(204, 204, 204)" stroke-width="1px"></line><line x1="48.875" y1="79.03472222222224" x2="43.875" y2="79.03472222222224" style="visibility: inherit;" fill="rgb(0, 0, 0)" stroke="rgb(204, 204, 204)" stroke-width="1px"></line><line x1="48.875" y1="59.276041666666714" x2="43.875" y2="59.276041666666714" style="visibility: inherit;" fill="rgb(0, 0, 0)" stroke="rgb(204, 204, 204)" stroke-width="1px"></line><line x1="48.875" y1="39.51736111111114" x2="43.875" y2="39.51736111111114" style="visibility: inherit;" fill="rgb(0, 0, 0)" stroke="rgb(204, 204, 204)" stroke-width="1px"></line><line x1="48.875" y1="19.75868055555557" x2="43.875" y2="19.75868055555557" style="visibility: inherit;" fill="rgb(0, 0, 0)" stroke="rgb(204, 204, 204)" stroke-width="1px"></line><line x1="48.875" y1="0" x2="43.875" y2="0" style="visibility: inherit;" fill="rgb(0, 0, 0)" stroke="rgb(204, 204, 204)" stroke-width="1px"></line></g><g transform="translate(38.875, 0)"><text x="0" y="177.828125" dx="0em" dy="0.3em" style="text-anchor: end; visibility: hidden; font-family: &quot;Helvetica Neue&quot;, sans-serif; font-size: 12px; font-weight: 200;" fill="rgb(50, 49, 63)" stroke="none" stroke-width="1px">0.65</text><text x="0" y="158.06944444444446" dx="0em" dy="0.3em" style="text-anchor: end; visibility: inherit; font-family: &quot;Helvetica Neue&quot;, sans-serif; font-size: 12px; font-weight: 200;" fill="rgb(50, 49, 63)" stroke="none" stroke-width="1px">0.7</text><text x="0" y="138.3107638888889" dx="0em" dy="0.3em" style="text-anchor: end; visibility: hidden; font-family: &quot;Helvetica Neue&quot;, sans-serif; font-size: 12px; font-weight: 200;" fill="rgb(50, 49, 63)" stroke="none" stroke-width="1px">0.75</text><text x="0" y="118.55208333333334" dx="0em" dy="0.3em" style="text-anchor: end; visibility: inherit; font-family: &quot;Helvetica Neue&quot;, sans-serif; font-size: 12px; font-weight: 200;" fill="rgb(50, 49, 63)" stroke="none" stroke-width="1px">0.8</text><text x="0" y="98.79340277777781" dx="0em" dy="0.3em" style="text-anchor: end; visibility: hidden; font-family: &quot;Helvetica Neue&quot;, sans-serif; font-size: 12px; font-weight: 200;" fill="rgb(50, 49, 63)" stroke="none" stroke-width="1px">0.85</text><text x="0" y="79.03472222222224" dx="0em" dy="0.3em" style="text-anchor: end; visibility: inherit; font-family: &quot;Helvetica Neue&quot;, sans-serif; font-size: 12px; font-weight: 200;" fill="rgb(50, 49, 63)" stroke="none" stroke-width="1px">0.9</text><text x="0" y="59.276041666666714" dx="0em" dy="0.3em" style="text-anchor: end; visibility: hidden; font-family: &quot;Helvetica Neue&quot;, sans-serif; font-size: 12px; font-weight: 200;" fill="rgb(50, 49, 63)" stroke="none" stroke-width="1px">0.95</text><text x="0" y="39.51736111111114" dx="0em" dy="0.3em" style="text-anchor: end; visibility: inherit; font-family: &quot;Helvetica Neue&quot;, sans-serif; font-size: 12px; font-weight: 200;" fill="rgb(50, 49, 63)" stroke="none" stroke-width="1px">1</text><text x="0" y="19.75868055555557" dx="0em" dy="0.3em" style="text-anchor: end; visibility: hidden; font-family: &quot;Helvetica Neue&quot;, sans-serif; font-size: 12px; font-weight: 200;" fill="rgb(50, 49, 63)" stroke="none" stroke-width="1px">1.05</text><text x="0" y="0" dx="0em" dy="0.3em" style="text-anchor: end; visibility: hidden; font-family: &quot;Helvetica Neue&quot;, sans-serif; font-size: 12px; font-weight: 200;" fill="rgb(50, 49, 63)" stroke="none" stroke-width="1px">1.1</text></g><line x1="48.875" y1="0" x2="48.875" y2="177.828125" fill="rgb(0, 0, 0)" stroke="rgb(204, 204, 204)" stroke-width="1px"></line></g></g><g transform="translate(48, 0)" clip-path="url(#clip_0)"><clipPath id="clip_0"><rect width="281" height="177"></rect></clipPath><g><g><g><line x1="0" y1="0" x2="0" y2="177.828125" fill="rgb(0, 0, 0)" stroke="rgb(60, 60, 60)" stroke-width="1px" opacity="0.25"></line><line x1="31.23611111111111" y1="0" x2="31.23611111111111" y2="177.828125" fill="rgb(0, 0, 0)" stroke="rgb(60, 60, 60)" stroke-width="1px" opacity="0.25"></line><line x1="62.47222222222222" y1="0" x2="62.47222222222222" y2="177.828125" fill="rgb(0, 0, 0)" stroke="rgb(60, 60, 60)" stroke-width="1px" opacity="0.25"></line><line x1="93.70833333333333" y1="0" x2="93.70833333333333" y2="177.828125" fill="rgb(0, 0, 0)" stroke="rgb(60, 60, 60)" stroke-width="1px" opacity="0.25"></line><line x1="124.94444444444444" y1="0" x2="124.94444444444444" y2="177.828125" fill="rgb(0, 0, 0)" stroke="rgb(60, 60, 60)" stroke-width="1px" opacity="0.25"></line><line x1="156.18055555555557" y1="0" x2="156.18055555555557" y2="177.828125" fill="rgb(0, 0, 0)" stroke="rgb(60, 60, 60)" stroke-width="1px" opacity="0.25"></line><line x1="187.41666666666666" y1="0" x2="187.41666666666666" y2="177.828125" fill="rgb(0, 0, 0)" stroke="rgb(60, 60, 60)" stroke-width="1px" opacity="0.25"></line><line x1="218.65277777777777" y1="0" x2="218.65277777777777" y2="177.828125" fill="rgb(0, 0, 0)" stroke="rgb(60, 60, 60)" stroke-width="1px" opacity="0.25"></line><line x1="249.88888888888889" y1="0" x2="249.88888888888889" y2="177.828125" fill="rgb(0, 0, 0)" stroke="rgb(60, 60, 60)" stroke-width="1px" opacity="0.25"></line><line x1="281.125" y1="0" x2="281.125" y2="177.828125" fill="rgb(0, 0, 0)" stroke="rgb(60, 60, 60)" stroke-width="1px" opacity="0.25"></line></g><g><line x1="0" y1="177.828125" x2="281.125" y2="177.828125" fill="rgb(0, 0, 0)" stroke="rgb(60, 60, 60)" stroke-width="1px" opacity="0.25"></line><line x1="0" y1="158.06944444444446" x2="281.125" y2="158.06944444444446" fill="rgb(0, 0, 0)" stroke="rgb(60, 60, 60)" stroke-width="1px" opacity="0.25"></line><line x1="0" y1="138.3107638888889" x2="281.125" y2="138.3107638888889" fill="rgb(0, 0, 0)" stroke="rgb(60, 60, 60)" stroke-width="1px" opacity="0.25"></line><line x1="0" y1="118.55208333333334" x2="281.125" y2="118.55208333333334" fill="rgb(0, 0, 0)" stroke="rgb(60, 60, 60)" stroke-width="1px" opacity="0.25"></line><line x1="0" y1="98.79340277777781" x2="281.125" y2="98.79340277777781" fill="rgb(0, 0, 0)" stroke="rgb(60, 60, 60)" stroke-width="1px" opacity="0.25"></line><line x1="0" y1="79.03472222222224" x2="281.125" y2="79.03472222222224" fill="rgb(0, 0, 0)" stroke="rgb(60, 60, 60)" stroke-width="1px" opacity="0.25"></line><line x1="0" y1="59.276041666666714" x2="281.125" y2="59.276041666666714" fill="rgb(0, 0, 0)" stroke="rgb(60, 60, 60)" stroke-width="1px" opacity="0.25"></line><line x1="0" y1="39.51736111111114" x2="281.125" y2="39.51736111111114" fill="rgb(0, 0, 0)" stroke="rgb(60, 60, 60)" stroke-width="1px" opacity="0.25"></line><line x1="0" y1="19.75868055555557" x2="281.125" y2="19.75868055555557" fill="rgb(0, 0, 0)" stroke="rgb(60, 60, 60)" stroke-width="1px" opacity="0.25"></line><line x1="0" y1="0" x2="281.125" y2="0" fill="rgb(0, 0, 0)" stroke="rgb(60, 60, 60)" stroke-width="1px" opacity="0.25"></line></g></g></g><g><g><line x1="0" y1="434.6909722222222" x2="281.125" y2="434.6909722222222" fill="rgb(0, 0, 0)" stroke="rgb(153, 153, 153)" stroke-width="1.5px"></line></g></g><g><g><line x1="31.23611111111111" y1="0" x2="31.23611111111111" y2="177.828125" fill="rgb(0, 0, 0)" stroke="rgb(153, 153, 153)" stroke-width="1.5px"></line></g></g><g><g><g><g><g><path stroke="rgb(255, 112, 67)" stroke-width="2px" d="M33.06342361111111,185.1335435227803L33.21960416666667,162.9712217171095L33.360166666666665,149.20443938025664L33.64129166666667,146.53914286967992L33.656909722222224,143.30942052862287L33.71938194444444,135.21424025513488L34.515902777777775,123.51453128227227L34.82826388888889,120.38093026875625L34.93759027777778,122.96053034571293L35.42175,106.06207507007659L35.62478472222222,100.61944396577641L35.74972916666667,103.47502706456471L35.81220138888889,110.32212916994956L36.18703472222222,107.46771185674368L36.280743055555554,115.73694328279909L36.39006944444444,117.60149353991434L36.46815972222222,119.16888860586226L36.81175694444445,123.4610904193207L36.874229166666666,129.52368437503387L37.2490625,131.86464246469936L37.35838888888889,133.81438504668574L37.374006944444446,134.42433793885655L37.49895138888889,132.82160423526003L37.54580555555556,136.53055396389385L37.76445833333333,134.24903897635693L38.60783333333333,138.58389956017834L38.81086805555555,138.12522398802443L38.82648611111111,137.54834080237342L38.87334027777778,137.06734175246453L39.076375000000006,137.33278998929063L39.15446527777778,140.96448412759543L39.52929861111111,143.60974518477246L39.56053472222222,144.24542355551336L39.76356944444445,141.01644609251434L39.85727777777778,143.64754780244223L40.294583333333335,144.16720840200497L40.45076388888889,140.59040312676134L41.07548611111111,136.37710135373104L41.512791666666665,135.01691347363675L41.52840972222222,128.9719938107533L41.63773611111111,121.47969186073303L41.66897222222222,118.58415913273222L42.04380555555556,119.70579804355793L42.106277777777784,117.41893917495626L42.278076388888884,118.58670003139689L42.37178472222222,124.6798378961951L42.449875,116.11573646900032L42.68414583333333,120.79538458265597L42.762236111111115,120.21682319161218L42.871562499999996,121.44792531973454L43.121451388888886,126.90788284499705L43.35572222222223,132.82542386794643L43.48066666666667,132.22032901684736L43.60561111111111,126.5316269484585L43.63684722222222,125.17379366677774L43.76179166666667,124.45148190254406L44.04291666666667,125.46514423916572L44.433368055555555,124.58986463906109L44.573930555555556,122.30894861969387L44.65202083333333,120.2572998872287L44.76134722222222,119.96184865914408L44.77696527777778,116.87174582606676L44.79258333333333,115.8475194666021L45.136180555555555,117.53871633200154L45.49539583333333,117.77166672592412L45.635958333333335,113.36718879971663L45.69843055555556,103.69942098015241L45.80775694444444,101.17282321786757L45.823375,107.36757879333031L45.88584722222222,111.80439978512194L46.19820833333333,113.02491987986329L46.338770833333335,113.80098824842455L46.43247916666667,109.48566818395557L46.854166666666664,103.19672312476787L47.13529166666667,102.37151480582315L47.447652777777776,102.90839487147537L47.603833333333334,102.3041772936352L48.306645833333334,107.49899368990746L48.400354166666666,107.25705256978794L48.4940625,105.24782339050466L48.650243055555556,103.52201148477452L48.69709722222222,104.78539772803343L48.69709722222222,105.89436985900505L48.85327777777778,109.67468879104037L48.900131944444446,114.44547606754477L49.24372916666667,118.65874085849191L49.3374375,120.20730702446667L49.618562499999996,125.06985755488927L49.88406944444444,130.21800151193602L49.8996875,135.7774544834416L49.915305555555555,138.6201192835247L50.25890277777778,136.58301859279968L50.38384722222222,136.48538851165023L50.39946527777778,135.0647567265358L50.44631944444444,141.01036130721633L50.63373611111111,141.75143916599256L50.64935416666667,140.79489204339149L50.727444444444444,142.4420491150937L50.7430625,137.7537843835469L50.774298611111114,136.68511691183835L51.00856944444444,129.6049320793007L51.117895833333336,124.49123280293017L51.16475,115.63841582227316L52.19554166666667,117.61778790635145L52.632847222222225,116.35935290730598L52.74217361111111,116.91611356776207L53.00768055555556,118.39320627064015L53.851055555555554,113.7528419584506L54.3976875,120.5702922916372L54.74128472222222,124.42410370581123L54.9599375,123.19290373483655L54.97555555555556,121.48926917924898L55.42847916666666,125.24333205799164L55.91263888888889,120.75354741630619L56.19376388888889,117.07203073930259L56.459270833333335,107.60856175797056L56.56859722222222,114.38735058259542L56.58421527777778,116.12410223575145L56.58421527777778,117.30458684794388L57.03713888888889,108.26568269473378L57.59938888888889,105.89904480020762L57.84927777777778,108.92595280664715L58.161638888888895,107.46135938499732L58.41152777777778,110.68322356445385L59.34861111111111,116.3967283365814L59.48917361111111,118.40144544056616L59.50479166666667,117.26993977208488L59.895243055555554,111.04970135897226L60.332548611111115,112.93332037633047L60.441874999999996,113.93321738745969L60.847944444444444,117.6276530724004L61.01974305555556,115.59824681270281L61.05097916666667,107.47815307407731L61.06659722222223,103.47550431673614L61.41019444444444,101.68461694247733L61.90997222222222,100.61056526997606L62.128625,102.82038961390772L62.34727777777778,100.57070471693002L62.75334722222222,93.39497257987773L63.23750694444445,97.3157003409892L63.315597222222216,95.29821807962088L63.89346527777778,93.85191032248032L64.00279166666667,98.1414200472744L64.04964583333333,100.34248502831869L64.23706250000001,102.43154068245448L64.28391666666667,104.88325893738198L64.5181875,108.83553550612717L64.84616666666666,107.84612265956571L64.939875,106.7419981721609L64.95549305555555,105.49137595022938L65.59583333333333,103.06743632032808L65.84572222222222,107.7843764836565L66.31426388888889,111.97849351626184L66.43920833333334,114.89112510484591L66.61100694444445,117.50235107932943L67.37629166666666,120.48878012704034L67.65741666666666,122.98068259438993L67.68865277777778,123.25630015115756L67.751125,125.56368642068114L68.32899305555556,120.93932672978914L68.62573611111111,111.68605091411685L68.71944444444445,103.58518388505223L68.7350625,95.22016795840018L69.03180555555555,88.56756776743956L69.12551388888889,84.93791654099334L69.45349305555555,85.86282450404413L69.98450694444445,88.61620777178247L70.04697916666667,89.59246155655745L70.07821527777777,92.7851800839965L70.67170138888889,91.22078786352512L70.68731944444446,89.23230434360714L71.10900694444445,90.3369859702903L71.32765972222222,90.75024022375447L71.84305555555555,103.20920289607679L72.13979861111112,108.7461375585431L72.84261111111111,106.5705748103442L72.96755555555555,101.55193546967043L73.07688194444444,102.18223422369802L73.56104166666667,107.32024409103403L73.73284027777778,108.7254794644183L74.29509027777777,108.56150527732798L74.31070833333332,106.39825105364726L74.56059722222223,104.51955400988517L74.85734027777778,102.02614615876958L75.43520833333332,98.73921765221745L75.46644444444443,97.67662262503428L75.57577083333332,95.96337343831955L75.90375,100.37130874956384L75.91936805555555,100.41151838099903L76.59094444444445,97.3150031005892L76.7158888888889,92.5385999727699L76.74712500000001,92.4910609375171L77.01263194444444,94.97432528949061L77.02825,94.7548914558834L77.07510416666666,91.60434716529893L77.35622916666667,90.75358691531231L77.52802777777778,94.00865350090166L77.71544444444444,90.9074899887083L77.79353472222222,92.16083732673836L78.01218750000001,88.04809373882918L78.16836805555556,81.12651570211676L78.19960416666667,75.81719250911802L79.0273611111111,82.00736505371017L79.1054513888889,87.01711582009327L79.49590277777779,90.5472646814125L79.65208333333334,90.55875889654665L79.74579166666668,92.43291319284093L79.79264583333332,89.56874370560762L79.90197222222221,86.80410285981924L80.33927777777778,90.92158829260491L80.52669444444444,89.65847141022117L80.55793055555556,89.40984733799876L80.74534722222222,88.68934209201325L80.91714583333334,90.20240761018452L81.02647222222222,90.92245171175095L81.21388888888887,95.56577071884621L81.96355555555556,96.39943733821448L82.15097222222222,91.66018062848148L82.57265972222223,87.86596150910576L82.65075,82.52694774225789L82.79131249999999,80.34259620284148L83.213,78.85200793542079L83.52536111111111,77.16207444569568L83.54097916666667,72.4545878529373L83.6346875,77.25514700876455L83.85334027777778,80.24297578971411L83.88457638888889,85.79121682400708L84.69671527777777,93.70780911280472L84.7591875,95.24367379459584L84.86851388888888,98.64576086272585L85.63379861111112,102.81628042981735L85.83683333333333,103.8255797600513L86.00863194444445,98.50088822499383L86.7270625,104.41779877961183L86.78953472222223,107.04024176391319L87.10189583333334,102.19559753500165L87.58605555555555,102.75056796370465L87.82032638888889,102.52165415867528L88.32010416666667,97.6688719898037L88.46066666666667,90.6565842762519L88.53875694444446,85.94100323153594L88.55437500000001,80.55364848521913L88.6949375,77.32394116739388L88.88235416666666,82.94859080158814L89.02291666666666,85.37436051191106L89.41336805555555,80.24176071419704L89.49145833333334,80.86696695454683L89.50707638888889,80.67888184016894L89.63202083333334,72.71906401510181L89.88190972222223,69.44349828050422L90.64719444444444,65.24451469828657L90.92831944444444,75.42026048135176L91.25629861111112,76.71098370200335L91.30315277777778,73.71028546714282L91.83416666666666,66.55639256702935L91.99034722222223,61.392820337248054L92.05281944444444,68.8923725193543L92.13090972222223,69.99578456756777L92.39641666666667,73.46756569645278L92.92743055555556,64.63337567869945L93.17731944444444,68.0761043775684L93.63024305555555,76.15101020175076L93.91136805555556,77.66388422109159L93.98945833333333,72.97341673420405L94.08316666666667,66.76642079066899L94.22372916666667,59.75656616823811L95.11395833333333,59.47105269612443L95.37946527777778,60.41296549555432L95.42631944444445,62.06330050188771L95.97295138888889,70.88109681553621L96.3165486111111,73.49339240976335L96.36340277777778,79.11762069259525L96.5352013888889,77.01846938565342L96.58205555555556,81.48303994845881L96.64452777777778,83.36665928485061L97.34734027777779,80.14334167475326L97.3785763888889,87.9837155945161L97.59722916666666,89.12891091610199L97.67531944444444,92.27705120155925L98.12824305555556,93.28922458099407L98.39375,91.51588943025831L98.65925694444445,97.86650845305056L98.65925694444445,102.66914313822684L99.09656249999999,96.86204750002128L99.1277986111111,98.48494453060599L100.09611805555556,97.01219638245966L100.12735416666668,96.78886801130473L100.56465972222222,95.49171498833475L100.61151388888888,94.72543090889724L100.76769444444444,88.2258911072764L100.7833125,83.16679307940241L100.95511111111111,80.63477985140713L101.00196527777777,75.84647705474818L101.18938194444445,77.20063603656877L101.31432638888889,75.9415214961302L101.45488888888889,71.96458895471139L101.50174305555556,72.99831387039492L101.57983333333334,67.6062384376706L101.9390486111111,70.1372558720132L102.00152083333333,73.09687907447406L103.28220138888888,78.61121789561373L103.32905555555556,84.13209080271757L103.54770833333333,83.74836034268692L103.90692361111111,87.42745174397857L103.98501388888889,87.14825580140138L104.23490277777778,87.16703993499938L104.39108333333334,91.22188866183424L104.73468055555554,94.54936105500401L104.7502986111111,92.52790972909166L104.90647916666666,90.79360351493375L104.96895138888888,91.41751733867535L105.17198611111111,96.42938826095778L105.71861805555555,93.2162787118774L105.78109027777778,90.98967850259274L105.8435625,84.43576270669233L105.93727083333334,79.58183822876791L106.10906944444446,79.42919634480698L106.4058125,77.11364795810128L106.64008333333334,83.37494374347922L106.8275,83.1328373034452L106.9680625,82.33065645098908L107.51469444444444,83.7746656636914L108.07694444444444,93.98295814031215L108.0925625,96.81425685652893L108.40492361111112,98.65842651105014L108.59234027777778,99.86824484648123L109.10773611111112,107.00833932128515L109.71684027777778,103.89732163484172L109.74807638888889,103.52165402126059L109.7793125,106.84654891808734L109.98234722222223,114.60745150749463L110.32594444444445,114.24707803636745L110.4508888888889,121.61283632227742L110.63830555555555,122.32251583853265L110.76325,128.17019486844876L111.3255,128.86263118261235L111.48168055555556,132.34404856442632L111.52853472222222,130.2515861646795L112.41876388888889,127.9478312712975L112.43438194444444,127.61597040838937L112.60618055555555,126.5270480908511L113.05910416666667,125.60224549727823L113.13719444444445,127.61204151198896L113.16843055555556,126.9085923510416L113.4027013888889,128.8510602572588L113.65259027777778,127.90909692411208L113.65259027777778,126.4219893211768L114.05865972222222,125.8497982651589L114.19922222222222,125.94868364756684L114.3085486111111,125.56362429957763L114.43349305555556,124.52607124975384L114.5584375,124.41899705318565L114.87079861111111,127.76643315639754L115.23001388888889,127.35342180316309L115.24563194444444,129.1594135481569L115.41743055555555,133.48716336902055L115.46428472222222,136.6386410087294L115.6829375,136.78609133744757L115.76102777777778,133.95477596714497L115.80788194444445,131.80288890263236L115.88597222222222,128.00508741779174L115.9640625,123.56053240119165L116.0733888888889,124.79279201039216L116.37013194444445,122.10406229780138L116.38574999999999,118.4754732066716L116.65125694444444,116.95775780938325L116.68249305555555,116.72863773721156L116.86990972222222,115.17660491280353L116.91676388888888,118.23457559228443L116.93238194444444,117.98838653926998L117.24474305555556,119.58776905848043L117.29159722222222,118.73742642899796L117.38530555555556,116.26504515813028L117.43215972222222,116.8230218464114L117.93193749999999,117.41184963781768L118.07249999999999,115.85015967081873L118.15059027777777,114.96406967025796L118.4941875,111.92399964430547L118.68160416666667,108.30476311838054L118.69722222222222,105.51730437100811L118.69722222222222,101.71483090439233L119.16576388888889,100.84347095325835L119.25947222222223,98.39246823327466L120.39959027777778,103.74004358004913L120.82127777777777,103.71473804577772L120.97745833333333,100.8712319139122L121.21172916666666,99.0384308601218L121.28981944444445,96.71847778742357L121.41476388888888,100.14871386421746L121.47723611111111,98.43405758499826L121.55532638888889,100.69625713893525L121.78959722222223,95.36861036623725L122.10195833333334,97.21462516588159L122.19566666666667,103.94662983823453L122.36746527777777,105.692710296622L122.47679166666666,101.54510466424621L122.49240972222222,102.66482636631729L123.05465972222223,96.11551315681221L123.61690972222223,98.2685991600054L123.94488888888888,95.16634440686049L124.538375,94.15129920307965L124.69455555555555,93.09277310339367L124.74140972222223,92.33273043075515L124.85073611111112,90.27526883003992L124.9600625,93.35419049921397L125.02253472222223,93.24174992937002L125.16309722222223,92.1053989053932L125.25680555555554,85.65637400836258L126.02209027777778,91.65162992616288L126.225125,96.66042627105264L126.25636111111112,101.76290708321564L126.38130555555556,105.0700612919305L126.63119444444443,103.20610611019168L126.70928472222224,103.60392903981806L127.2090625,104.66652710068605L127.22468055555555,106.28705091049815L127.349625,103.52534768732217L128.03681944444443,104.52284715789868L128.09929166666666,108.49935448240721L128.34918055555556,107.08836581555671L128.52097916666668,112.29974856962329L129.25502777777777,113.98235474658289L129.81727777777778,119.64264630644573L130.17649305555557,118.26622611663885L130.39514583333332,117.93120073781839L130.8636875,112.96534908767332L130.98863194444445,114.78297661933841L131.2229027777778,109.72020849009377L131.4571736111111,104.838485729683L131.69144444444444,105.47112931898704L131.7851527777778,103.38822984686152L131.94133333333332,102.41321580070509L132.26931249999998,104.20947740880908L132.42549305555556,103.92632198421427L132.87841666666668,109.57821160985637L133.01897916666667,111.57396047155306L133.2220138888889,110.5644073104483L133.30010416666667,106.8912668172992L133.3938125,103.29310234553574L133.48752083333332,101.13970472974343L133.5968472222222,96.95891416956805L133.62808333333334,92.8321492173689L133.76864583333332,87.03518322625845L134.04977083333333,88.16552582325718L134.36213194444446,86.21065197009638L134.36213194444446,84.69057364321665L134.39336805555556,83.62187681133113L134.61202083333333,86.49685172593698L135.18988888888887,88.6226318365964L135.47101388888888,94.5783299663053L135.8927013888889,95.63811225932979L135.9239375,89.60851570170387L136.08011805555557,87.65593938307934L136.45495138888887,79.46296081691264L136.6892222222222,76.73514479273909L137.01720138888888,78.93286701022173L137.40765277777777,79.83543666159838L137.53259722222222,86.8433614849397L137.59506944444445,91.29263411012758L137.6419236111111,101.12600844263424L138.04799305555557,99.38705993644187L138.07922916666666,101.5198904853557L138.39159027777777,104.30312039574933L138.57900694444444,98.56518218857241L138.81327777777778,97.77259989726518L139.07878472222222,89.58852033002357L139.34429166666666,95.27338283291984L139.53170833333334,94.98187890263108L139.65665277777777,97.30153016374052L140.06272222222222,94.36539648668291L140.21890277777777,89.78594978097435L140.2501388888889,84.79319030430436L140.32822916666666,86.56672812814054L140.37508333333335,89.02879690204811L140.54688194444446,87.12132010253546L141.18722222222223,91.74795850824697L142.2804861111111,77.61165684898938L142.32734027777778,69.56567775537128L142.79588194444443,66.78601936686303L142.8115,64.16387543763825L142.85835416666666,69.23709479827843L142.92082638888888,68.85815900711464L143.06138888888887,74.96315464737602L143.15509722222222,76.08145080988274L143.2019513888889,75.6392927216444L143.654875,78.80465546835707L144.0453263888889,76.73654158782949L144.42015972222222,73.22442300101743L144.70128472222223,76.54179509049551L144.8887013888889,65.88196431059947L144.90431944444447,69.39730299248512L145.49780555555554,71.50596757103128L145.5446597222222,71.23210302126617L145.77893055555555,69.34621612282913L145.84140277777777,70.08224164505393L145.87263888888887,66.82879822663429L145.91949305555556,62.84854322985575L146.38803472222222,67.07906183833069L146.63792361111112,61.4159805708703L146.65354166666665,61.387278485278486L146.71601388888888,63.99646951648813L146.74725,62.59815661190849L146.87219444444446,63.17140605872051L147.37197222222224,59.38787017440794L147.5281527777778,67.00895904149507L147.77804166666664,65.62440611320706L147.79365972222223,67.44893537486433L147.98107638888888,71.54694039032547L148.57456249999998,68.06756941740832L149.07434027777776,66.13588197087522L149.40231944444446,74.10967141546887L149.43355555555556,70.31270638075743L149.7771527777778,67.17460202305396L149.91771527777777,62.41854949245179L150.44872916666668,60.220508665386745L150.90165277777777,60.281136109338405L151.02659722222222,60.44042270524527L151.07345138888888,63.828586009018L151.71379166666665,63.464272389910406L151.93244444444443,58.492819624733556L152.05738888888888,59.50539304779552L152.07300694444444,70.69365814306595L152.32289583333332,69.06681741684277L152.57278472222222,64.80766726767325L153.02570833333334,60.6207990558125L154.15020833333332,62.306023372384544L154.337625,60.494971479994064L154.4000972222222,62.93481539388809L154.4469513888889,68.49264114409138L154.80616666666666,69.55618236126341L154.83740277777778,69.95629654758328L154.97796527777777,72.52899208903152L155.13414583333332,71.39365257980113L156.00875694444446,78.07389282372776L156.11808333333335,76.63629791746669L156.61786111111113,71.97246665324555L156.91460416666666,73.19634578125385L157.08640277777778,75.17497827283579L157.5393263888889,79.08122043341234L157.64865277777778,85.56528251959404L157.72674305555554,88.3640552221984L157.75797916666667,90.66033065203081L158.11719444444444,91.83484266978928L158.67944444444444,91.08489960585226L158.85124305555556,81.47192992854883L158.99180555555557,84.89392400181845L159.35102083333334,92.39035640237464L159.6165277777778,93.50297092496481L160.11630555555556,94.34655572405337L160.53799305555555,98.21942358882353L160.7410277777778,102.2039105220372L160.78788194444445,106.56031186180259L161.3345138888889,104.6954615227522L161.36575,101.61007533604177L161.6156388888889,100.71505150931587L162.0060902777778,97.07444028445842L162.49024999999997,97.67325044249382L162.49024999999997,97.01462840546236L162.69328472222222,97.08911146008134L162.75575694444444,98.14585999106211L162.86508333333333,99.81210931871689L163.1930625,100.3586961496878L163.3960972222222,104.34831914773659L164.50497916666666,101.1765315910078L164.73925,100.5316772846951L165.00475694444447,103.08438922159874L165.19217361111112,100.09342130748301L165.48891666666665,104.3016208185181L165.56700694444447,105.96473578987013L165.84813194444445,101.85660714401712L165.91060416666664,95.22292095168947L166.01993055555553,92.66844273299874L166.1136388888889,99.31071435358929L166.25420138888887,99.70449077654675L166.26981944444444,93.86614631956071L166.44161805555555,84.29625093889628L166.45723611111111,81.76897333263182L166.45723611111111,79.8557682040229L166.4884722222222,76.19617048221545L166.62903472222223,74.59064196441847L166.91015972222223,74.44945626338176L167.03510416666666,82.21870747829676L167.14443055555554,84.37224128656271L167.31622916666666,85.37149546094817L167.45679166666667,90.18885994654501L167.53488194444446,90.05744665337711L167.9097152777778,88.7560904892862L168.2220763888889,92.26913972189745L168.33140277777775,91.78606504499894L168.37825694444442,92.23851323611187L168.48758333333336,97.47484461210321L168.5656736111111,93.62695179914041L168.61252777777776,88.17413223681662L168.62814583333332,87.5222937011027L168.65938194444442,85.24533904813792L168.8467986111111,87.00603486631405L168.9248888888889,87.90449949516871L169.08106944444444,83.52390037805786L169.19039583333333,80.42316410870544L169.47152083333333,78.13183129649765L169.62770138888888,64.95015905695757L170.00253472222224,58.24207107225564L170.01815277777777,56.55488669904959L170.26804166666668,59.707323544766524L170.56478472222224,61.4508865807865L171.42377777777776,72.13615558926985L171.50186805555555,74.21135716194499L171.6268125,74.81020301952091L171.64243055555553,79.94082609145227L171.72052083333332,83.40236876730833L171.9391736111111,93.40191460347583L172.20468055555554,93.89276933791842L172.20468055555554,94.6158485584989L172.2983888888889,95.79695170252006L172.61075,100.31945098587835L172.79816666666667,102.16982225842672L172.93872916666666,98.72864492240704L173.2823263888889,97.86534152691904L173.46974305555557,94.05469102028817L173.64154166666668,86.7176126878536L173.86019444444446,88.38733795205444L174.28188194444442,88.37186815625485L174.62547916666665,86.82692346356757L175.3126736111111,87.75157852792111L175.32829166666667,89.9125466832621L175.99986805555557,87.1537513733102L176.0623402777778,86.17638597763319L176.42155555555556,91.32270376969443L176.89009722222224,93.67394447464241L177.3586388888889,93.8419394096945L177.4211111111111,95.89323192750508L177.6397638888889,89.21478551169487L177.93650694444443,90.11462763327253L178.06145138888888,86.13094084253017L178.38943055555555,88.66356730588042L178.76426388888888,93.07387803311134L179.076625,93.86020560397193L179.27965972222222,98.67045254753003L179.42022222222224,90.02020129715109L179.4670763888889,89.63301891483435L179.638875,82.98332096751678L179.81067361111113,88.59961665658022L179.98247222222224,86.08748744707056L180.34168749999998,92.25537891299531L180.5134861111111,81.98906554041545L180.7946111111111,72.28141842458729L180.91955555555555,68.26025770081422L181.37247916666666,63.89095579991083L181.7160763888889,60.96234558549267L181.7473125,63.3778379840891L181.95034722222223,50.34366033854583L182.15338194444445,51.864252821961216L183.38720833333332,54.61917818537847L183.51215277777777,56.16779681992712L183.52777083333334,57.340813212290044L183.69956944444445,58.64545563460241L183.7464236111111,56.735967322016094L183.93384027777776,55.72615435523315L184.12125694444444,60.55134114814898L184.2462013888889,59.595135481064105L184.5585625,63.108576243351706L184.60541666666666,70.03213929471809L184.71474305555554,74.4505902296092L184.79283333333333,73.8597173502916L184.87092361111112,76.41068434928388L185.2301388888889,72.59508747360519L185.27699305555555,63.672365123377276L185.30822916666668,64.98807809517925L185.35508333333334,69.08605589425756L185.82362500000002,70.53067645565245L186.0266597222222,73.5308722308644L186.21407638888888,77.15107244998032L186.76070833333333,73.49916206411851L186.93250694444444,67.09200107870271L187.18239583333335,61.98036718213882L187.24486805555554,58.56908611963085L187.32295833333333,56.71071106899686L187.3698125,59.98675185421787L187.68217361111112,57.00398625729858L187.7915,63.40678570653213L187.8227361111111,68.4202162487973L187.86959027777777,68.52125305436246L187.9008263888889,66.1585304780335L188.4943125,58.02062875520963L188.4943125,49.99327881469594L188.50993055555557,44.21607781773645L188.83790972222224,37.164112269149086L188.8691458333333,32.741705870717084L189.10341666666665,32.58509530307225L189.32206944444442,37.360504356447876L189.3376875,35.66005726805824L189.38454166666665,36.275940282507264L189.8218472222222,38.072777019178375L189.93117361111112,43.22084575165837L190.00926388888888,35.85188066422191L190.02488194444445,33.83653082521411L190.321625,32.56896102144802L190.39971527777777,35.35433838476439L190.50904166666666,38.43638057531973L190.8526388888889,42.947714033547555L191.0244375,47.66737708734922L191.19623611111112,40.0706881783112L191.52421527777778,52.13023736334844L191.6179236111111,57.18841683419684L191.63354166666667,57.59034057471746L191.7897222222222,60.71619061405198L191.80534027777776,70.4920273070262L191.83657638888891,65.09174832762152L191.9302847222222,74.82881569511143L192.78927777777778,67.77068576033054L192.78927777777778,62.18084126769131L192.92984027777777,60.92481694373254L192.9610763888889,60.72848798693042L193.2422013888889,59.332759331909216L193.49209027777778,54.19896323709621L193.49209027777778,46.660254175938235L193.5233263888889,41.69908919592305L193.5233263888889,36.73863972137681L193.8356875,38.45626363421593L193.89815972222223,47.157487798865645L194.0855763888889,48.450683315898715L194.35108333333335,51.58268790342761L194.5385,56.79392099099208L194.5385,60.62786920396981L194.81962499999997,63.47714555181378L195.11636805555554,60.718762452492285L195.42872916666667,65.36057122465331L195.49120138888887,69.4563577563371L195.50681944444443,69.89721852119354L195.74109027777777,75.0423044572409L195.81918055555556,72.06246412362877L195.85041666666666,68.95291568447753L196.35019444444444,72.53078795206524L196.84997222222222,69.34421302324809L197.0373888888889,69.62919017839748L197.16233333333335,67.86550273996083L197.6933472222222,56.30050505475542L197.70896527777776,51.49290442664133L197.75581944444443,52.30764987613264L198.27121527777777,51.13948582683291L198.41177777777776,48.54462316748359L199.0052638888889,46.49786088571125L199.30200694444446,43.513872764935L199.317625,45.50686725682212L199.91111111111113,45.551105998809874L199.9892013888889,43.32109849509615L200.53583333333336,42.588500219215774L200.64515972222225,52.999556984371765L200.8638125,58.11094481401655L200.87943055555556,63.66676349925706L201.19179166666666,68.03799764366389L201.37920833333334,70.98061625101128L201.4260625,69.91866160633661L201.58224305555555,75.90858337927773L201.6290972222222,70.5638038545088L201.80089583333333,78.68357559439L201.84775,82.42785079109315L202.31629166666667,81.26439215568914L202.7692152777778,87.10652451518898L203.01910416666666,85.36607668969384L203.0815763888889,81.3758186973815L203.73753472222222,83.15207361925805L204.75270833333335,83.55601134746522L204.940125,85.11786257138014L205.04945138888888,80.4693052283838L205.25248611111112,75.83414059959088L205.31495833333332,74.53153792428319L205.3930486111111,75.70191572809331L205.43990277777777,77.6054840187268L205.48675694444444,86.97737332131624L205.502375,82.42256846764731L205.6117013888889,83.4106790480777L205.83035416666667,86.26044737244526L206.36136805555557,91.8236910348176L206.39260416666664,95.13197217944942L206.7205833333333,95.04558662796002L206.98609027777778,89.87722015738404L207.28283333333331,90.63206304906733L207.98564583333334,93.45746914833654L208.0012638888889,96.59176367772172L208.1105902777778,84.62312701760692L208.9539652777778,93.64209653257068L209.00081944444446,89.89281680777862L209.09452777777778,91.8378097763725L209.48497916666665,88.14537228591352L209.5005972222222,85.85222415338687L209.5786875,85.39906824568568L209.59430555555554,86.88249689733678L209.62554166666666,82.24876435040888L210.29711805555556,86.04638936035015L210.3127361111111,87.36320934945635L210.32835416666666,91.28581445477604L211.46847222222223,94.52029496048208L211.49970833333333,97.46331164032605L211.49970833333333,98.5686788719033L211.64027083333335,93.68891248860504L211.74959722222223,92.74333521665159L211.8276875,86.24386719925789L211.92139583333335,83.29967904810012L211.95263194444445,78.68798761700438L211.9994861111111,74.28383860038083L212.03072222222224,76.20181002948078L212.0775763888889,75.94786425905149L212.26499305555558,72.25380029533356L212.3430833333333,75.12899461797852L212.54611805555555,73.64150382681805L212.5617361111111,79.35022775768778L212.6242083333333,82.85915445854849L212.88971527777778,88.20474316685755L213.07713194444443,90.00099542985448L213.34263888888887,92.45173260652437L213.46758333333332,87.32316531431418L213.655,82.81259120129113L213.81118055555555,77.3777928792136L213.92050694444444,76.14491947029305L214.17039583333334,78.16089807514525L215.06062500000002,80.49352265844172L215.43545833333332,80.81442621752106L215.91961805555556,73.61169970479976L216.0757986111111,75.74831721955012L216.15388888888887,81.45747359540184L216.31006944444445,85.54632131909999L216.7786111111111,80.45056815750175L216.8879375,83.34306944419374L217.1690625,76.31205688475058L217.32524305555557,70.11183280574917L217.4189513888889,70.6377727087078L218.0905277777778,60.636326249142186L218.16861805555558,58.07989635579756L218.84019444444445,57.0421412589981L219.26188194444444,55.46330703460178L219.558625,58.26869030343201L219.57424305555554,62.55704161607922L219.79289583333335,63.58796426025033L220.10525694444445,54.54138025911614L220.48009027777778,59.38541026875974L220.85492361111113,57.95327573549291L220.87054166666667,63.373033422223926L220.9330138888889,61.3195778119743L221.1672847222222,54.39088472576891L221.33908333333332,53.027677039720174L221.4484097222222,54.66622711209041L221.90133333333333,50.90629714070582L222.651,45.14847541572263L222.99459722222224,44.8571274345893L223.02583333333334,42.30923991509948L223.49437500000002,45.22790920516988L223.85359027777778,57.36698581600049L224.0878611111111,60.73917396424355L224.2596597222222,62.17923305599885L224.32213194444444,68.33411371155346L224.82190972222222,63.851616109984306L225.27483333333333,68.5128494134987L225.50910416666667,69.92347576742046L225.63404861111113,66.17548979733259L225.6809027777778,63.38089679013508L225.94640972222223,72.82917273721165L226.1650625,70.21101201665527L226.2743888888889,67.26451967565136L226.5242777777778,71.04346779858528L226.82102083333334,69.6266496491556L227.4925972222222,63.13249999045455L228.07046527777777,66.90720401248876L228.25788194444445,70.95204104271916L228.36720833333334,75.00318402731071L228.4140625,67.8274554527331L228.42968055555556,55.7109161087085L229.0544027777778,52.594061045321L229.5073263888889,56.52420061392087L230.39755555555556,57.89749767637501L230.52249999999998,52.64013273680169L230.92856944444443,56.623208004625965L231.13160416666668,56.73049038426221L231.6157638888889,53.88631188023615L231.8187986111111,55.424653971281415L232.2873402777778,61.398404638770344L232.50599305555556,60.9654967410427L232.55284722222223,67.74926829221398L232.80273611111113,69.27178659830783L233.06824305555554,75.7333838843458L233.1931875,72.6936641368109L233.33374999999998,76.57337238635161L233.6461111111111,68.4289148636591L234.05218055555557,75.31486519152641L234.38015972222223,73.45317100321833L234.48948611111112,70.09900087252612L234.61443055555557,65.31175260830406L234.78622916666666,65.22363229808343L234.84870138888888,62.05878025785508L234.97364583333334,65.95279115753084L235.00488194444446,72.37936799556881L235.47342361111112,69.78416223292002L235.47342361111112,68.29496255410714L235.58275,68.90587600800264L236.44174305555555,67.42167902358291L236.55106944444444,56.54504919794989L236.62915972222223,60.10659782851417L237.22264583333333,62.61891448047305L237.33197222222222,64.77799807898924L237.4100625,67.74382526858602L237.45691666666667,61.44937240488558L237.9410763888889,59.35783112810559L238.26905555555555,65.91706285346571L239.50288194444443,61.094312434532156L239.799625,68.34100632886829L240.15884027777778,55.890819728228834L240.17445833333332,51.29970398068568L240.48681944444445,52.00591737099617L240.48681944444445,51.2921374029052L240.5024375,43.81078790202923L240.62738194444444,43.55545410316191L240.7210902777778,42.45965118081273L240.73670833333333,33.44668127348504L241.51761111111114,39.331381875984505L242.59525694444443,40.70977218930065L242.68896527777778,41.66828804287539L243.18874305555556,46.07843599269029L243.23559722222222,44.30636901419339L243.2824513888889,47.57381751472633L243.31368750000001,48.00482299693485L243.31368750000001,47.9472947816013L243.90717361111112,52.835761893330016L244.21953472222222,54.838958545708834L244.6412222222222,51.94795329059076L244.87549305555555,44.168589525915706L245.50021527777778,51.05866536910111L245.57830555555554,46.77025993365345L245.64077777777777,41.56489854731626L246.0156111111111,38.49148560168632L246.20302777777778,43.17323710339329L246.5153888888889,42.18441525120227L246.546625,42.61988828894317L246.78089583333335,36.7444417127484L246.8589861111111,39.62529523897459L246.92145833333333,40.17297856461303L247.03078472222222,41.93921383190818L247.06202083333335,44.755023348754975L247.49932638888887,46.85750610017146L247.65550694444443,42.452840742833416L247.68674305555555,30.76379802554544L247.8429236111111,35.85613268351452L248.5145,42.121428852236676L248.85809722222223,40.099673270560714L249.23293055555555,53.86036071655455L249.24854861111112,61.042501130000474L249.4984375,68.28300655079336L249.639,78.38698722171986L249.81079861111112,87.97049918144164L250.70102777777777,82.71642608757442L251.84114583333334,82.78901193184052L252.04418055555556,84.65370916098179L252.10665277777778,86.42255431894962L252.38777777777779,84.09841067545332L252.82508333333334,81.74973823874305L253.30924305555558,87.47816863262022L253.40295138888888,81.0702374705973L253.48104166666664,82.66351300549569L254.12138194444444,83.5282152761422L254.35565277777778,85.23138474366355L254.65239583333334,90.01584507985737L255.16779166666666,81.58968831342902L256.8389236111111,90.5171393797782L257.4636458333334,93.0116613122875L257.66668055555556,97.00956737747615L257.8384791666667,94.20569366093221L257.97904166666666,94.95605027995013L258.13522222222224,86.80532690193274L258.1820763888889,86.20136470948243L258.3070208333333,78.6302410885936L258.4007291666667,74.43745234238321L258.52567361111113,77.42369848268227L258.7287083333333,79.38742224531995L259.25972222222225,73.28371479138933L259.5252291666667,72.157500214562L259.65017361111114,63.56818237508337L259.7282638888889,57.645537445391255L259.74388194444447,52.70062591963398L259.80635416666667,50.93600420637313L259.8532083333333,45.558636182729174L260.10309722222223,35.05269770747961L260.5560208333333,33.07280999968998L261.1182708333333,34.67968901656238L261.36815972222223,36.71652481750593L261.43063194444443,44.529598813500854L261.4931041666667,26.378641791266375L261.8835555555556,23.240075986329032L261.91479166666664,13.804188179144234L262.0709722222222,12.24117168382017L262.16468055555555,19.891709030691374L262.3208611111111,14.90576207282271L262.4614236111111,14.818679743785793L263.52345138888893,16.90301301784109L263.8045763888889,26.42005471647886" style="fill: none;" fill="none"></path></g></g></g></g><g opacity="0.20000000298023224"><g><g><g><path stroke="rgb(255, 112, 67)" stroke-width="2px" d="M32.4699375,195.56160750405655L32.532409722222226,164.62700428565344L33.01656944444444,70.84984158393412L33.06342361111111,83.29914576187731L33.21960416666667,49.371700979355325L33.360166666666665,73.30520025268198L33.64129166666667,130.9154571418961L33.656909722222224,123.36360929658017L33.71938194444444,82.93447990508545L34.515902777777775,44.98233192207087L34.82826388888889,98.63032774916955L34.93759027777778,141.39688001655873L35.42175,-17.842161503103L35.62478472222222,59.804861333635145L35.74972916666667,125.31780561970342L35.81220138888889,163.62157044228582L36.18703472222222,84.90123060759574L36.280743055555554,182.01672762549586L36.39006944444444,132.72990649897193L36.46815972222222,132.02518890632524L36.81175694444445,159.00954369579753L36.874229166666666,180.1699383755525L37.2490625,151.57200429919695L37.35838888888889,150.3416751192676L37.374006944444446,139.626618306256L37.49895138888889,119.07641828391289L37.54580555555556,168.49606144676608L37.76445833333333,114.49880419837106L38.60783333333333,176.2580361560815L38.81086805555555,134.12471453679933L38.82648611111111,132.50079496370424L38.87334027777778,132.84671169105505L39.076375000000006,139.66800300528607L39.15446527777778,172.98701969409984L39.52929861111111,166.9826580989692L39.56053472222222,149.87257001631792L39.76356944444445,112.38519316663347L39.85727777777778,167.01245414010353L40.294583333333335,148.78815899830727L40.45076388888889,108.74602482881814L41.07548611111111,98.82512084022166L41.512791666666665,122.88206758515705L41.52840972222222,74.99507153737879L41.63773611111111,54.52568591593044L41.66897222222222,92.69017485611971L42.04380555555556,129.74274149288735L42.106277777777784,96.94328296639856L42.278076388888884,129.04779888606737L42.37178472222222,179.28915326711206L42.449875,39.32840945737232L42.68414583333333,162.7698040869501L42.762236111111115,115.02561704897221L42.871562499999996,132.49749737812414L43.121451388888886,175.9263697092732L43.35572222222223,185.96513882817493L43.48066666666667,126.7853489737544L43.60561111111111,75.42531223884889L43.63684722222222,112.9730584588316L43.76179166666667,117.96013845668901L44.04291666666667,134.57615400271285L44.433368055555555,116.72163597535757L44.573930555555556,101.80248730629684L44.65202083333333,101.81009530731376L44.76134722222222,117.30507308120531L44.77696527777778,89.08233358131517L44.79258333333333,106.63589981612235L45.136180555555555,132.7499511084623L45.49539583333333,119.86703798092076L45.635958333333335,73.74700605786511L45.69843055555556,16.729254634843954L45.80775694444444,78.44279147808754L45.823375,163.09975107842024L45.88584722222222,151.72249197256235L46.19820833333333,124.00630872613856L46.338770833333335,120.78371966381869L46.43247916666667,70.65721547769178L46.854166666666664,46.608583359254766L47.13529166666667,94.94610025982064L47.447652777777776,107.73946038468019L47.603833333333334,96.8670851853159L48.306645833333334,154.24563957916368L48.400354166666666,105.07986339761153L48.4940625,87.16686033457519L48.650243055555556,87.99132739214436L48.69709722222222,116.15480456832384L48.69709722222222,115.87427425218954L48.85327777777778,143.6949674073193L48.900131944444446,157.37961780611013L49.24372916666667,156.57578421259922L49.3374375,134.1436285455194L49.618562499999996,168.8306250580483L49.88406944444444,176.54921296280293L49.8996875,185.81050561865172L49.915305555555555,164.20317032188177L50.25890277777778,118.24971357898582L50.38384722222222,135.60674371321997L50.39946527777778,122.27941026621396L50.44631944444444,194.51952335238457L50.63373611111111,148.42099639814762L50.64935416666667,132.18613463681606L50.727444444444444,157.26620441633796L50.7430625,95.56006358646687L50.774298611111114,127.06724543248615L51.00856944444444,65.88407812143369L51.117895833333336,78.46846553724676L51.16475,35.96388289001257L52.19554166666667,135.43197167747553L52.632847222222225,105.03353232021135L52.74217361111111,121.9269219218857L53.00768055555556,131.6869508425395L53.851055555555554,71.98981691896917L54.3976875,181.92700974353485L54.74128472222222,159.10823572137292L54.9599375,112.11215308060251L54.97555555555556,106.15661930623983L55.42847916666666,159.02977673874963L55.91263888888889,80.34561612870961L56.19376388888889,83.93847694330748L56.459270833333335,22.437563707431195L56.56859722222222,175.39630638145738L56.58421527777778,131.7548339971238L56.58421527777778,127.92892809874483L57.03713888888889,26.91568492518533L57.59938888888889,84.59933664773902L57.84927777777778,136.16808699568114L58.161638888888895,94.28003508100909L58.41152777777778,139.67996853010524L59.34861111111111,167.81821917659707L59.48917361111111,136.44388292108974L59.50479166666667,107.08639711472725L59.895243055555554,55.06759699765182L60.332548611111115,129.88588026124572L60.441874999999996,122.93228510270518L60.847944444444444,150.87755633021396L61.01974305555556,97.33359932816693L61.05097916666667,34.3973413060109L61.06659722222223,67.4516796436575L61.41019444444444,85.56663626929125L61.90997222222222,90.9441032914652L62.128625,122.70880301710633L62.34727777777778,80.32354585950577L62.75334722222222,28.813398318158278L63.23750694444445,132.60224282865724L63.315597222222216,77.14088113688763L63.89346527777778,80.83514270807309L64.00279166666667,136.7470016984476L64.04964583333333,120.1520671459536L64.23706250000001,121.23303925328787L64.28391666666667,126.94872078506484L64.5181875,144.40602107511629L64.84616666666666,98.94140784028505L64.939875,96.80487858876587L64.95549305555555,94.23577677168782L65.59583333333333,81.25198107957841L65.84572222222222,150.23683545200362L66.31426388888889,149.7255448078116L66.43920833333334,141.10480815089412L66.61100694444445,141.00338384012383L67.37629166666666,147.36664051728118L67.65741666666666,145.4078040201631L67.68865277777778,125.73685808438395L67.751125,146.33016226109532L68.32899305555556,79.32009056748618L68.62573611111111,28.40657047430676L68.71944444444445,30.677382121483504L68.7350625,19.9350260107054L69.03180555555555,28.69416704525554L69.12551388888889,52.27105599227882L69.45349305555555,94.18699605928529L69.98450694444445,113.3966568807761L70.04697916666667,98.37874552359186L70.07821527777777,121.5196465485626L70.67170138888889,77.14125800381107L70.68731944444446,71.33595280680395L71.10900694444445,100.27912053921159L71.32765972222222,94.46952848095034L71.84305555555555,215.33986629628473L72.13979861111112,158.57854926048054L72.84261111111111,86.99051016858884L72.96755555555555,56.3841815946831L73.07688194444444,107.85492298834856L73.56104166666667,153.56233273860482L73.73284027777778,121.37259778587355L74.29509027777777,107.08573759761124L74.31070833333332,86.92896308915485L74.56059722222223,87.61128065403967L74.85734027777778,79.58547554413481L75.43520833333332,69.15686114711896L75.46644444444443,88.11326739605933L75.57577083333332,80.54413078063067L75.90375,140.04272649809718L75.91936805555555,100.77340506348347L76.59094444444445,69.44636560686763L76.7158888888889,49.55097186399834L76.74712500000001,92.06320962061487L77.01263194444444,117.32370443973278L77.02825,92.77998695481156L77.07510416666666,63.24944856804281L77.35622916666667,83.0967446698083L77.52802777777778,123.30425275613865L77.71544444444444,62.99701839188738L77.79353472222222,103.44096336430975L78.01218750000001,51.03340146152513L78.16836805555556,18.832313392725297L78.19960416666667,28.03328378664125L79.0273611111111,137.71891793981194L79.1054513888889,132.10487270644973L79.49590277777779,122.31860442625154L79.65208333333334,90.66220683273345L79.74579166666668,109.30030185646483L79.79264583333332,63.791218324667895L79.90197222222221,61.92233525133797L80.33927777777778,127.97895718283125L80.52669444444444,78.29041947010494L80.55793055555556,87.17223068823418L80.74534722222222,82.204794878761L80.91714583333334,103.8199972725577L81.02647222222222,97.4028486253487L81.21388888888887,137.35564177980027L81.96355555555556,103.9024369120598L82.15097222222222,49.00687024328445L82.57265972222223,53.71798943645426L82.65075,34.47582384281691L82.79131249999999,60.683432348900396L83.213,65.43671352912986L83.52536111111111,61.95267303867476L83.54097916666667,30.087208519379317L83.6346875,120.46017941004702L83.85334027777778,107.13343481760889L83.88457638888889,135.72538613155484L84.69671527777777,164.9571397105853L84.7591875,109.06645593047143L84.86851388888888,129.26454447540974L85.63379861111112,140.35095653310418L85.83683333333333,112.90927373203968L86.00863194444445,50.578664410031536L86.7270625,157.66999377061924L86.78953472222223,130.64222862240342L87.10189583333334,58.59379947516656L87.58605555555555,107.74530182199346L87.82032638888889,100.46142991342481L88.32010416666667,53.99383247022831L88.46066666666667,27.545994854635694L88.53875694444446,43.500773829304535L88.55437500000001,32.06745576858523L88.6949375,48.25657530708449L88.88235416666666,133.57043750915264L89.02291666666666,107.20628790474602L89.41336805555555,34.04836253490717L89.49145833333334,86.49382311768004L89.50707638888889,78.98611581077182L89.63202083333334,1.0807035896513355L89.88190972222223,39.963406669182945L90.64719444444444,27.453662458393325L90.92831944444444,167.00197252879542L91.25629861111112,88.3274926878512L91.30315277777778,46.70400135343277L91.83416666666666,2.1713564660814484L91.99034722222223,14.92067026926415L92.05281944444444,136.38834215824804L92.13090972222223,79.92649300148094L92.39641666666667,104.71359585639506L92.92743055555556,-14.874334481027347L93.17731944444444,99.06066266737052L93.63024305555555,148.82516261935234L93.91136805555556,91.27975039515232L93.98945833333333,30.75920935223502L94.08316666666667,10.903457298874883L94.22372916666667,-3.3321254336171364L95.11395833333333,56.901431447102L95.37946527777778,68.89018069042102L95.42631944444445,76.91631555888391L95.97295138888889,150.241263638354L96.3165486111111,97.00405275780295L96.36340277777778,129.7356752380729L96.5352013888889,58.12610762317979L96.58205555555556,121.66417501370114L96.64452777777778,100.31923331237503L97.34734027777779,51.133483183880685L97.3785763888889,158.54708087237347L97.59722916666666,99.43566881037422L97.67531944444444,120.6103137706717L98.12824305555556,102.39878499590691L98.39375,75.5558730736375L98.65925694444445,155.02207965817718L98.65925694444445,145.89285530481075L99.09656249999999,44.59818675617379L99.1277986111111,113.09101780586775L100.09611805555556,83.75746304914357L100.12735416666668,94.77891267091037L100.56465972222222,83.81733778160482L100.61151388888888,87.82887419395979L100.76769444444444,29.730032892690787L100.7833125,37.63491082853744L100.95511111111111,57.84666079945036L101.00196527777777,32.751751884818106L101.18938194444445,89.38806687295438L101.31432638888889,64.60949063218304L101.45488888888889,36.172196081943014L101.50174305555556,82.30183811154633L101.57983333333334,19.077559543152688L101.9390486111111,92.91641278109618L102.00152083333333,99.73348789662124L103.28220138888888,128.2402672858702L103.32905555555556,133.81994696665143L103.54770833333333,80.29478620241089L103.90692361111111,120.5392743556036L103.98501388888889,84.63549231820639L104.23490277777778,87.33609713738164L104.39108333333334,127.71552720334796L104.73468055555554,124.49661259353164L104.7502986111111,74.33484779588052L104.90647916666666,75.18484758751262L104.96895138888888,97.0327417523497L105.17198611111111,141.53622656149997L105.71861805555555,64.29829277015396L105.78109027777778,70.95027661903039L105.8435625,25.450520543588567L105.93727083333334,35.896517927447974L106.10906944444446,78.0554193891585L106.4058125,56.273712477750266L106.64008333333334,139.72660581188072L106.8275,80.95387934313882L106.9680625,75.11102877888418L107.51469444444444,96.770748578012L108.07694444444444,185.85759042989878L108.0925625,122.29594530247981L108.40492361111112,115.25595340174107L108.59234027777778,110.75660986536082L109.10773611111112,171.26918959452047L109.71684027777778,75.89816245685024L109.74807638888889,100.14064549903077L109.7793125,136.77060298952793L109.98234722222223,184.4555748121606L110.32594444444445,111.00371679622268L110.4508888888889,187.9046608954668L110.63830555555555,128.70963148482974L110.76325,180.79930613769426L111.3255,135.09455801008477L111.48168055555556,163.6768050007522L111.52853472222222,111.4194245669577L112.41876388888889,107.21403723085922L112.43438194444444,124.62922264221643L112.60618055555555,116.7267472330067L113.05910416666667,117.27902215512265L113.13719444444445,145.7002056443857L113.16843055555556,120.5775499025153L113.4027013888889,146.33327141321368L113.65259027777778,119.43142692579164L113.65259027777778,113.03802089475926L114.05865972222222,120.70007876099814L114.19922222222222,126.8386520892382L114.3085486111111,122.09809016767477L114.43349305555556,115.18809380133948L114.5584375,123.45532928407195L114.87079861111111,157.8933580853045L115.23001388888889,123.63631962405313L115.24563194444444,145.4133392531011L115.41743055555555,172.43691175679368L115.46428472222222,165.001939766109L115.6829375,138.113144295911L115.76102777777778,108.47293763442174L115.80788194444445,112.43590532201861L115.88597222222222,93.82487405422663L115.9640625,83.55953725179037L116.0733888888889,135.88312849319644L116.37013194444445,97.90549488448437L116.38574999999999,85.81817138650354L116.65125694444444,103.2983192337884L116.68249305555555,114.66655708766648L116.86990972222222,101.20830949313113L116.91676388888888,145.75631170761255L116.93238194444444,115.77268506214025L117.24474305555556,133.98221173137426L117.29159722222222,111.08434276365574L117.38530555555556,94.01361372032102L117.43215972222222,121.8448120409416L117.93193749999999,122.7112997604741L118.07249999999999,101.79494996782809L118.15059027777777,106.98925966521107L118.4941875,84.56336941073342L118.68160416666667,75.73163438505598L118.69722222222222,80.43017564465606L118.69722222222222,67.49256970485055L119.16576388888889,93.00123139305249L119.25947222222223,76.33344375342132L120.39959027777778,151.86822170101937L120.82127777777777,103.48698823733464L120.97745833333333,75.27967672712275L121.21172916666666,82.54322137600847L121.28981944444445,75.83890013313957L121.41476388888888,131.0208385553625L121.47723611111111,83.00215107202531L121.55532638888889,121.05605312436822L121.78959722222223,47.419789411955435L122.10195833333334,113.8287583626807L122.19566666666667,164.5346718894111L122.36746527777777,121.40743442210888L122.47679166666666,64.21665397286417L122.49240972222222,112.74232168495656L123.05465972222223,37.17169427126649L123.61690972222223,117.64637318874401L123.94488888888888,67.24605162855654L124.538375,85.01589236905178L124.69455555555555,83.56603820621969L124.74140972222223,85.49234637700852L124.85073611111112,71.75811442360283L124.9600625,121.06448552178014L125.02253472222223,92.22978480077454L125.16309722222223,81.87823968960181L125.25680555555554,27.615149935086606L126.02209027777778,145.6089331863655L126.225125,141.7395933750603L126.25636111111112,147.68523439268273L126.38130555555556,134.83444917036428L126.63119444444443,86.43050947454243L126.70928472222224,107.18433540645574L127.2090625,114.22990964849792L127.22468055555555,120.87176519880694L127.349625,78.67001867873803L128.03681944444443,113.50034239308702L128.09929166666666,144.28792040298384L128.34918055555556,94.38946781390246L128.52097916666668,159.20219335622258L129.25502777777777,129.12581033921907L129.81727777777778,170.58527034521103L130.17649305555557,105.87844440837704L130.39514583333332,114.9159723284344L130.8636875,68.27268423636758L130.98863194444445,131.14162440432443L131.2229027777778,64.1552953268919L131.4571736111111,60.902980885985855L131.69144444444444,111.16492162272336L131.7851527777778,84.64213459773198L131.94133333333332,93.63808938529759L132.26931249999998,120.375831881745L132.42549305555556,101.37792316286102L132.87841666666668,160.44521824063528L133.01897916666667,129.5357002268235L133.2220138888889,101.47842886050545L133.30010416666667,73.83300237895716L133.3938125,70.9096220996645L133.48752083333332,81.75912618761262L133.5968472222222,59.33179912798937L133.62808333333334,55.691264647576574L133.76864583333332,34.86248930626448L134.04977083333333,98.33860919624568L134.36213194444446,68.61678729164935L134.36213194444446,71.00986870129907L134.39336805555556,74.00360532436109L134.61202083333333,112.3716259573897L135.18988888888887,107.75465283253129L135.47101388888888,148.17961313368548L135.8927013888889,105.17615289655L135.9239375,35.34214668307041L136.08011805555557,70.08275251545842L136.45495138888887,5.726153721412061L136.6892222222222,52.18480057517691L137.01720138888888,98.7123669675655L137.40765277777777,87.95856352398796L137.53259722222222,149.91468489501213L137.59506944444445,131.33608773681854L137.6419236111111,189.62637743519412L138.04799305555557,83.73652338071004L138.07922916666666,120.7153654255801L138.39159027777777,129.35218958929184L138.57900694444444,46.92373832397993L138.81327777777778,90.63935927550001L139.07878472222222,15.931804224848776L139.34429166666666,146.43714535898633L139.53170833333334,92.35834353003239L139.65665277777777,118.17839151372513L140.06272222222222,67.94019339316424L140.21890277777777,48.570929429597356L140.2501388888889,39.85835501427454L140.32822916666666,102.52856854266592L140.37508333333335,111.18741586721607L140.54688194444446,69.95402890692158L141.18722222222223,133.38770415965055L142.2804861111111,-49.61505808432895L142.32734027777778,-2.848134087191653L142.79588194444443,41.76909387028883L142.8115,40.56458007461498L142.85835416666666,114.89606904404033L142.92082638888888,65.44773688664043L143.06138888888887,129.90811540972857L143.15509722222222,86.1461162724429L143.2019513888889,71.65986992749906L143.654875,107.29292018877138L144.0453263888889,58.12351666308113L144.42015972222222,41.61535571970876L144.70128472222223,106.39814389579828L144.8887013888889,-30.056512708465192L144.90431944444447,101.03535112945572L145.49780555555554,90.48394877794718L145.5446597222222,68.76732207338019L145.77893055555555,52.373234036895994L145.84140277777777,76.70647134507699L145.87263888888887,37.5478074608578L145.91949305555556,27.026248258849023L146.38803472222222,105.15372931460541L146.63792361111112,10.448249163726985L146.65354166666665,61.12895971495247L146.71601388888888,87.47918879737458L146.74725,50.01334047069156L146.87219444444446,68.3306510800289L147.37197222222224,25.33604721559422L147.5281527777778,135.59875884527963L147.77804166666664,53.16342975861498L147.79365972222223,83.86969872978001L147.98107638888888,108.42898552947577L148.57456249999998,36.75323066115382L149.07434027777776,48.75069495207737L149.40231944444446,145.8737764168117L149.43355555555556,36.140021068354486L149.7771527777778,38.93166280372279L149.91771527777777,19.61407671703236L150.44872916666668,40.43814122180146L150.90165277777777,60.826783104903186L151.02659722222222,61.87400206840702L151.07345138888888,94.32205574297245L151.71379166666665,60.18544981794227L151.93244444444443,13.749744738141715L152.05738888888888,68.61855385535296L152.07300694444444,171.38804400049978L152.32289583333332,54.425250880834156L152.57278472222222,26.47531592514784L153.02570833333334,22.938985149065672L154.15020833333332,77.47304222153295L154.337625,44.19550444848011L154.4000972222222,84.8934106189344L154.4469513888889,118.51307289592096L154.80616666666666,79.12805331581171L154.83740277777778,73.55732422446215L154.97796527777777,95.68325196206571L155.13414583333332,61.17559699672795L156.00875694444446,138.19605501906742L156.11808333333335,63.697943761116946L156.61786111111113,29.99798527525533L156.91460416666666,84.21125793332858L157.08640277777778,92.98267069707316L157.5393263888889,114.23739987860125L157.64865277777778,143.9218412952291L157.72674305555554,113.55300954563752L157.75797916666667,111.32680952052277L158.11719444444444,102.40545082961522L158.67944444444444,84.33541203041872L158.85124305555556,-5.04479716718194L158.99180555555557,115.69187066124547L159.35102083333334,159.85824800738033L159.6165277777778,103.5165016282764L160.11630555555556,101.9388189158506L160.53799305555555,133.07523437175487L160.7410277777778,138.06429292096033L160.78788194444445,145.767923919691L161.3345138888889,87.9118084712989L161.36575,73.84159965564811L161.6156388888889,92.65983706878293L162.0060902777778,64.30893926074111L162.49024999999997,103.06254186481239L162.49024999999997,91.08703007217913L162.69328472222222,97.75945895165206L162.75575694444444,107.65659676988922L162.86508333333333,114.8083532676101L163.1930625,105.27797762842644L163.3960972222222,140.2549261301756L164.50497916666666,72.63044358044864L164.73925,94.7279885278808L165.00475694444447,126.05879665373101L165.19217361111112,73.17471008044153L165.48891666666665,142.17541641783384L165.56700694444447,120.93277053203849L165.84813194444445,64.88344933133989L165.91060416666664,35.519745220740674L166.01993055555553,69.6781387647821L166.1136388888889,159.0911589389046L166.25420138888887,103.2484785831637L166.26981944444444,41.32104620668625L166.44161805555555,-1.8328074870837554L166.45723611111111,59.02347487625151L166.45723611111111,62.63692204654218L166.4884722222222,43.25979098594854L166.62903472222223,60.140885304245714L166.91015972222223,73.17878495405121L167.03510416666666,152.14196841253175L167.14443055555554,103.75404556095602L167.31622916666666,94.36478303041726L167.45679166666667,133.54514031691684L167.53488194444446,88.87472701486617L167.9097152777778,77.04388501246774L168.2220763888889,123.88658281539878L168.33140277777775,87.43839295291241L168.37825694444442,96.31054695612856L168.48758333333336,144.60182699602512L168.5656736111111,58.995916482475096L168.61252777777776,39.098756175902196L168.62814583333332,81.65574687967701L168.65938194444442,64.75274717145498L168.8467986111111,102.85229722989932L168.9248888888889,95.99068115486041L169.08106944444444,44.09850832406019L169.19039583333333,52.51653768453336L169.47152083333333,57.50983598662751L169.62770138888888,-53.68489109890325L170.00253472222224,-2.1307207900616447L170.01815277777777,41.37022734019493L170.26804166666668,88.07925515621902L170.56478472222224,77.14295390496655L171.42377777777776,168.30357666562003L171.50186805555555,92.88817131602104L171.6268125,80.19981573770447L171.64243055555553,126.11643373883435L171.72052083333332,114.55625285001267L171.9391736111111,183.3978271289832L172.20468055555554,98.3104619479014L172.20468055555554,101.12356154372297L172.2983888888889,106.42687999871045L172.61075,141.02194453610315L172.79816666666667,118.82316371136244L172.93872916666666,67.75804889823003L173.2823263888889,90.09561096752687L173.46974305555557,59.75883646061027L173.64154166666668,20.68390769594251L173.86019444444446,103.41486532986166L174.28188194444442,88.23263999405837L174.62547916666665,72.9224212293824L175.3126736111111,96.07347410710324L175.32829166666667,109.36126008133095L175.99986805555557,62.32459358374281L176.0623402777778,77.38009741654002L176.42155555555556,137.6395638982455L176.89009722222224,114.83511081917419L177.3586388888889,95.35389382516347L177.4211111111111,114.35486458780039L177.6397638888889,29.10876776940296L177.93650694444443,98.21320672747164L178.06145138888888,50.27775972584887L178.38943055555555,111.45720547603237L178.76426388888888,132.76667457818988L179.076625,100.93715374171735L179.27965972222222,141.962675039553L179.42022222222224,12.167940043740856L179.4670763888889,86.14837747398353L179.638875,23.136039441658426L179.81067361111113,139.14627785815134L179.98247222222224,63.47832456148335L180.34168749999998,147.76640210631822L180.5134861111111,-10.40775481280349L180.7946111111111,-15.08740561786621L180.91955555555555,32.069811186856725L181.37247916666666,24.567238691780318L181.7160763888889,34.604853655729045L181.7473125,85.11726957145667L181.95034722222223,-66.96393847134374L182.15338194444445,65.54958517269958L183.38720833333332,79.41350645613342L183.51215277777777,70.10536453086472L183.52777083333334,67.89796074355645L183.69956944444445,70.38723743541375L183.7464236111111,39.55057250873912L183.93384027777776,46.637837654186654L184.12125694444444,103.97802228439187L184.2462013888889,50.989284477300146L184.5585625,94.72954310393997L184.60541666666666,132.34420675701568L184.71474305555554,114.21664864362944L184.79283333333333,68.54186143643328L184.87092361111112,99.36938734021454L185.2301388888889,38.25471559249695L185.27699305555555,-16.63213602867387L185.30822916666668,76.82949484139682L185.35508333333334,105.96785608596274L185.82362500000002,83.53226150820656L186.0266597222222,100.5326342077719L186.21407638888888,109.73287442202371L186.76070833333333,40.631968591362266L186.93250694444444,9.427552209960112L187.18239583333335,15.975662113063919L187.24486805555554,27.867556557059316L187.32295833333333,39.98533561329049L187.3698125,89.47111892120708L187.68217361111112,30.159095885025152L187.7915,121.03198074963359L187.8227361111111,113.54109112918378L187.86959027777777,69.43058430444866L187.9008263888889,44.894027291072774L188.4943125,-15.220486750205339L188.8691458333333,-7.059951715171309L189.10341666666665,31.17560019426878L189.32206944444442,80.33918583682843L189.3376875,20.356033472551275L189.38454166666665,41.818887412548094L189.8218472222222,54.2443076492184L189.93117361111112,89.55346434397832L190.00926388888888,-30.468805122706584L190.02488194444445,15.69838227414428L190.321625,21.16083278755349L190.39971527777777,60.42273465461203L190.50904166666666,66.17476029031809L190.8526388888889,83.54971515759827L191.0244375,90.14434457156395L191.19623611111112,-28.299512003030998L191.52421527777778,160.6661800286836L191.6179236111111,102.71203207183217L191.63354166666667,61.2076542394029L191.7897222222222,88.84884096806249L191.80534027777776,158.47455754379433L191.83657638888891,16.48923751297926L191.9302847222222,162.46242200252084L192.78927777777778,4.247516347302366L192.78927777777778,11.87224083393815L192.92984027777777,49.62059802810353L192.9610763888889,58.96152737571137L193.2422013888889,46.77120143671834L193.49209027777778,7.9947983837790275L193.49209027777778,-21.18812737448343L193.5233263888889,-7.9054055495394095L193.8356875,53.914878849768L193.89815972222223,125.46850528071326L194.0855763888889,60.0894429691964L194.35108333333335,79.77072919118739L194.5385,103.69501877907251L194.5385,95.13340312076942L194.81962499999997,89.12063268240958L195.11636805555554,35.893314558598746L195.42872916666667,107.13685017410253L195.49120138888887,106.31843654149111L195.50681944444443,73.86496540490127L195.74109027777777,121.34807788166736L195.81918055555556,45.24390112111968L195.85041666666666,40.9669797321161L196.35019444444444,104.73163836035465L196.84997222222222,40.66503866389397L197.0373888888889,72.1939845747418L197.16233333333335,51.99231579403086L197.6933472222222,-47.78447411209342L197.70896527777776,8.224498773614584L197.75581944444443,59.64035892155438L198.27121527777777,40.6260093831354L198.41177777777776,25.190859233339665L199.0052638888889,28.077000349760084L199.30200694444446,16.657979677948703L199.317625,63.44381768380606L199.91111111111113,45.94925467669967L199.9892013888889,23.251030961672484L200.53583333333336,35.99511573629249L200.64515972222225,146.69906787077588L200.8638125,104.11343528081976L200.87943055555556,113.6691316664219L201.19179166666666,107.37910494332515L201.37920833333334,97.46418371713825L201.4260625,60.361069804264474L201.58224305555555,129.81787933574785L201.6290972222222,22.46078813158806L201.80089583333333,151.76152125332092L201.84775,116.12632756142153L202.31629166666667,70.79326443705297L202.7692152777778,139.68571575068768L203.01910416666666,69.70204626023771L203.0815763888889,45.46349676657056L203.73753472222222,99.13836791614693L204.75270833333335,87.19145090132953L204.940125,99.17452358661428L205.04945138888888,38.63228914141658L205.25248611111112,34.11765894045436L205.31495833333332,62.80811384651399L205.3930486111111,86.23531596238418L205.43990277777777,94.73759863442847L205.48675694444444,171.32437704462146L205.502375,41.4293247846266L205.6117013888889,92.30367427195115L205.83035416666667,111.9083622917533L206.36136805555557,141.8928839961688L206.39260416666664,124.90650248113607L206.7205833333333,94.26811666455536L206.98609027777778,43.36192192220028L207.28283333333331,97.42564907421671L207.98564583333334,118.88612404175933L208.0012638888889,124.80041444218823L208.1105902777778,-23.094602923426322L208.9539652777778,174.81282216724424L209.00081944444446,56.149299284650255L209.09452777777778,109.34274649371706L209.48497916666665,54.9134348717829L209.5005972222222,65.21389096064703L209.5786875,81.32066507637502L209.59430555555554,100.23335476219656L209.62554166666666,40.5451714280579L210.29711805555556,120.2250144498216L210.3127361111111,99.2145892514123L210.32835416666666,126.58926040265297L211.46847222222223,123.63061951183612L211.49970833333333,123.95046175892156L211.49970833333333,108.51698395609857L211.64027083333335,49.77101503892081L211.74959722222223,84.2331397690707L211.8276875,27.748655042714574L211.92139583333335,56.80198568767973L211.95263194444445,37.18276473714249L211.9994861111111,34.646497450768976L212.03072222222224,93.46355289138027L212.0775763888889,73.66235232518781L212.26499305555558,39.007224621872126L212.3430833333333,101.0057435217831L212.54611805555555,60.25408670637346L212.5617361111111,130.7287431355152L212.6242083333333,114.43949476629498L212.88971527777778,136.31504154163932L213.07713194444443,106.16726579682697L213.34263888888887,114.50836719655331L213.46758333333332,41.16605968442232L213.655,42.21742418408397L213.81118055555555,28.464607980516263L213.92050694444444,65.04905879000826L214.17039583333334,96.30470551881527L215.06062500000002,101.48714390810996L215.43545833333332,83.70255824923517L215.91961805555556,8.78716109030782L216.0757986111111,94.97787485230302L216.15388888888887,132.83988097806773L216.31006944444445,122.34595083238352L216.7786111111111,34.5887897031175L216.8879375,109.3755810244216L217.1690625,13.032943849762319L217.32524305555557,14.309816094736277L217.4189513888889,75.37123183533551L218.0905277777778,-29.37669188694818L218.16861805555558,35.07202731569612L218.84019444444445,47.702345387803206L219.26188194444444,41.25379901503527L219.558625,83.51713972290358L219.57424305555554,101.15220342990428L219.79289583333335,72.8662680577901L220.10525694444445,-26.877875751091324L220.48009027777778,102.98168035555219L220.85492361111113,45.06406493609154L220.87054166666667,112.15085260280307L220.9330138888889,42.83847731972736L221.1672847222222,-7.967353050079566L221.33908333333332,40.75880786528194L221.4484097222222,69.41317776342237L221.90133333333333,17.06692739824456L222.651,-6.671920109126262L222.99459722222224,42.23499560438927L223.02583333333334,19.37825223969091L223.49437500000002,71.49593281580344L223.85359027777778,166.61867531347607L224.0878611111111,91.08886729843088L224.2596597222222,75.13976488179632L224.32213194444444,123.72803961154489L224.82190972222222,23.509137695862222L225.27483333333333,110.46394914512835L225.50910416666667,82.61911295271584L225.63404861111113,32.44361606654198L225.6809027777778,38.22955972535746L225.94640972222223,157.86365626090105L226.1650625,46.6475655316479L226.2743888888889,40.7460886066159L226.5242777777778,105.05400090499059L226.82102083333334,56.875286304288466L227.4925972222222,4.685153062144934L228.07046527777777,100.87954021079675L228.25788194444445,107.35557431479297L228.36720833333334,111.46347088863455L228.4140625,3.2458982815345507L228.42968055555556,-53.33793798751296L229.0544027777778,24.542365474833417L229.5073263888889,91.89545673131944L230.39755555555556,70.25717123846216L230.52249999999998,5.3238482806417835L230.92856944444443,92.47088541504412L231.13160416666668,57.69603180098868L231.6157638888889,28.28870534400147L231.8187986111111,69.2697327906887L232.2873402777778,115.1621606461704L232.50599305555556,57.06932566149371L232.55284722222223,128.80321225275597L232.80273611111113,82.9744513531526L233.06824305555554,133.88775945868758L233.1931875,45.33618640899661L233.33374999999998,111.49074663221838L233.6461111111111,-4.871202840573233L234.05218055555557,137.28841814233198L234.38015972222223,56.69792330844538L234.48948611111112,39.91146969629662L234.61443055555557,22.2265182303058L234.78622916666666,64.43054950609805L234.84870138888888,33.575111895799665L234.97364583333334,100.99888925461308L235.00488194444446,130.21855953791078L235.47342361111112,46.427310369081L235.47342361111112,54.89216544479133L235.58275,74.40409709306229L236.44174305555555,54.063906163805086L236.55106944444444,-41.34461923274725L236.62915972222223,92.16053550359278L237.22264583333333,85.22976434810296L237.33197222222222,84.20975046563483L237.4100625,94.43626997495693L237.45691666666667,4.799296631581285L237.9410763888889,40.533959637085616L238.26905555555555,124.95014838170675L239.50288194444443,17.689558664129862L239.799625,133.56125137789383L240.15884027777778,-56.160859677526645L240.17445833333332,9.979662252797056L240.48681944444445,58.36183788379037L240.48681944444445,44.86811769008639L240.5024375,-23.521357605854604L240.62738194444444,41.257449913356055L240.7210902777778,32.59742487967017L240.73670833333333,-47.67004789246448L241.51761111111114,92.29368729848002L242.59525694444443,53.11528500914575L242.68896527777778,50.29493072504802L243.18874305555556,85.76976754102445L243.23559722222222,28.35776620772154L243.2824513888889,76.98085401952268L243.31368750000001,51.88387233681151L243.31368750000001,47.4295408435994L243.90717361111112,96.831965898888L244.21953472222222,72.86772841711843L244.6412222222222,25.928905994527895L244.87549305555555,-25.84568435615961L245.50021527777778,113.06934795777005L245.57830555555554,8.174611014624475L245.64077777777777,-5.2833539297183165L246.0156111111111,10.830769091016748L246.20302777777778,85.30900061875583L246.5153888888889,33.285018581483115L246.546625,46.539145628611266L246.78089583333335,-16.13457747300464L246.8589861111111,65.55297697501052L246.92145833333333,45.102128495358784L247.03078472222222,57.83533123756452L247.06202083333335,70.09730900037623L247.49932638888887,65.7798508629203L247.65550694444443,2.8108525267905975L247.68674305555555,-74.43758643004625L247.8429236111111,81.68714460523594L248.5145,98.50909437073604L248.85809722222223,21.90387303547729L249.23293055555555,177.70654773049884L249.24854861111112,125.68176485101384L249.4984375,133.4475553379291L249.639,169.32281326005858L249.81079861111112,174.2221068189376L250.70102777777777,35.429768242769796L251.84114583333334,83.44228453023568L252.04418055555556,101.43598422325321L252.10665277777778,102.34216074066032L252.38777777777779,63.181117883986914L252.82508333333334,60.611686308350855L253.30924305555558,139.03404217751492L253.40295138888888,23.39885701239112L253.48104166666664,97.00299281958078L254.12138194444444,91.31053571196068L254.35565277777778,100.55990995135575L254.65239583333334,133.07598810560177L255.16779166666666,5.754277415573625L256.8389236111111,170.86419897692073L257.4636458333334,115.46235870487162L257.66668055555556,132.99072196417387L257.8384791666667,68.9708302120368L257.97904166666666,101.70925985111133L258.13522222222224,13.448816499776342L258.1820763888889,80.76570497742959L258.3070208333333,10.490128500594068L258.4007291666667,36.70235362648967L258.52567361111113,104.2999137453735L258.7287083333333,97.06093610905941L259.25972222222225,18.35034770601331L259.5252291666667,62.0215690231158L259.65017361111114,-13.73567818022434L259.7282638888889,4.341733078161894L259.74388194444447,8.196422187818456L259.80635416666667,35.05440878702538L259.8532083333333,-2.837676030066234L260.10309722222223,-59.500748569766614L260.5560208333333,15.253820629583487L261.1182708333333,49.14160016841362L261.36815972222223,55.04804702599847L261.43063194444443,114.84726477745508L261.4931041666667,-136.97997140884394L262.0709722222222,-1.8259767740964605L262.16468055555555,88.74654515253175L262.3208611111111,-29.96776054799554L262.4614236111111,14.034938782453565L263.52345138888893,35.66201248433859L263.8045763888889,112.07343000421923" style="fill: none;" fill="none"></path></g></g></g></g></g></g><g transform="translate(48, 177)" clip-path="url(#clip_1)"><clipPath id="clip_1"><rect width="281" height="22"></rect></clipPath><g><g><line x1="0" y1="0" x2="0" y2="5" style="visibility: inherit;" fill="rgb(0, 0, 0)" stroke="rgb(204, 204, 204)" stroke-width="1px"></line><line x1="31.23611111111111" y1="0" x2="31.23611111111111" y2="5" style="visibility: inherit;" fill="rgb(0, 0, 0)" stroke="rgb(204, 204, 204)" stroke-width="1px"></line><line x1="62.47222222222222" y1="0" x2="62.47222222222222" y2="5" style="visibility: inherit;" fill="rgb(0, 0, 0)" stroke="rgb(204, 204, 204)" stroke-width="1px"></line><line x1="93.70833333333333" y1="0" x2="93.70833333333333" y2="5" style="visibility: inherit;" fill="rgb(0, 0, 0)" stroke="rgb(204, 204, 204)" stroke-width="1px"></line><line x1="124.94444444444444" y1="0" x2="124.94444444444444" y2="5" style="visibility: inherit;" fill="rgb(0, 0, 0)" stroke="rgb(204, 204, 204)" stroke-width="1px"></line><line x1="156.18055555555557" y1="0" x2="156.18055555555557" y2="5" style="visibility: inherit;" fill="rgb(0, 0, 0)" stroke="rgb(204, 204, 204)" stroke-width="1px"></line><line x1="187.41666666666666" y1="0" x2="187.41666666666666" y2="5" style="visibility: inherit;" fill="rgb(0, 0, 0)" stroke="rgb(204, 204, 204)" stroke-width="1px"></line><line x1="218.65277777777777" y1="0" x2="218.65277777777777" y2="5" style="visibility: inherit;" fill="rgb(0, 0, 0)" stroke="rgb(204, 204, 204)" stroke-width="1px"></line><line x1="249.88888888888889" y1="0" x2="249.88888888888889" y2="5" style="visibility: inherit;" fill="rgb(0, 0, 0)" stroke="rgb(204, 204, 204)" stroke-width="1px"></line><line x1="281.125" y1="0" x2="281.125" y2="5" style="visibility: inherit;" fill="rgb(0, 0, 0)" stroke="rgb(204, 204, 204)" stroke-width="1px"></line></g><g transform="translate(0, 8)"><text x="0" y="0" dx="0em" dy="0.95em" style="text-anchor: middle; visibility: hidden; font-family: &quot;Helvetica Neue&quot;, sans-serif; font-size: 12px; font-weight: 200;" fill="rgb(50, 49, 63)" stroke="none" stroke-width="1px">-2k</text><text x="31.23611111111111" y="0" dx="0em" dy="0.95em" style="text-anchor: middle; visibility: inherit; font-family: &quot;Helvetica Neue&quot;, sans-serif; font-size: 12px; font-weight: 200;" fill="rgb(50, 49, 63)" stroke="none" stroke-width="1px">0</text><text x="62.47222222222222" y="0" dx="0em" dy="0.95em" style="text-anchor: middle; visibility: inherit; font-family: &quot;Helvetica Neue&quot;, sans-serif; font-size: 12px; font-weight: 200;" fill="rgb(50, 49, 63)" stroke="none" stroke-width="1px">2k</text><text x="93.70833333333333" y="0" dx="0em" dy="0.95em" style="text-anchor: middle; visibility: inherit; font-family: &quot;Helvetica Neue&quot;, sans-serif; font-size: 12px; font-weight: 200;" fill="rgb(50, 49, 63)" stroke="none" stroke-width="1px">4k</text><text x="124.94444444444444" y="0" dx="0em" dy="0.95em" style="text-anchor: middle; visibility: inherit; font-family: &quot;Helvetica Neue&quot;, sans-serif; font-size: 12px; font-weight: 200;" fill="rgb(50, 49, 63)" stroke="none" stroke-width="1px">6k</text><text x="156.18055555555557" y="0" dx="0em" dy="0.95em" style="text-anchor: middle; visibility: inherit; font-family: &quot;Helvetica Neue&quot;, sans-serif; font-size: 12px; font-weight: 200;" fill="rgb(50, 49, 63)" stroke="none" stroke-width="1px">8k</text><text x="187.41666666666666" y="0" dx="0em" dy="0.95em" style="text-anchor: middle; visibility: inherit; font-family: &quot;Helvetica Neue&quot;, sans-serif; font-size: 12px; font-weight: 200;" fill="rgb(50, 49, 63)" stroke="none" stroke-width="1px">10k</text><text x="218.65277777777777" y="0" dx="0em" dy="0.95em" style="text-anchor: middle; visibility: inherit; font-family: &quot;Helvetica Neue&quot;, sans-serif; font-size: 12px; font-weight: 200;" fill="rgb(50, 49, 63)" stroke="none" stroke-width="1px">12k</text><text x="249.88888888888889" y="0" dx="0em" dy="0.95em" style="text-anchor: middle; visibility: inherit; font-family: &quot;Helvetica Neue&quot;, sans-serif; font-size: 12px; font-weight: 200;" fill="rgb(50, 49, 63)" stroke="none" stroke-width="1px">14k</text><text x="281.125" y="0" dx="0em" dy="0.95em" style="text-anchor: middle; visibility: hidden; font-family: &quot;Helvetica Neue&quot;, sans-serif; font-size: 12px; font-weight: 200;" fill="rgb(50, 49, 63)" stroke="none" stroke-width="1px">16k</text></g><line x1="0" y1="0" x2="281.125" y2="0" fill="rgb(0, 0, 0)" stroke="rgb(204, 204, 204)" stroke-width="1px"></line></g></g></g></g></svg>